<svg xmlns="http://www.w3.org/2000/svg" width="78" height="80" fill="none" viewBox="0 0 78 80">
	<path fill="#fff" d="M3.161 8.639H0v-.882l.088-.353.088-.441.087-.441.088-.353.176-.441.176-.353.087-.441.264-.353.175-.353.176-.353.263-.265.264-.352.263-.353.264-.265.263-.265.351-.264.352-.265.263-.265.351-.176.352-.176.35-.265.44-.088.351-.177.44-.176.35-.088.44-.089L7.2.258 7.55.17h.879v3.176h-.527l-.263.088h-.264l-.263.088-.264.088-.175.089-.264.088-.263.088-.176.088-.263.177-.176.088-.263.176-.176.177-.175.176-.176.177-.176.176-.175.177-.176.176-.176.265-.087.176-.176.265-.088.176-.088.265-.087.264-.088.177-.088.265-.088.264v.265l-.088.264v.53zM0 65.804V8.639h3.161v57.165H0zm7.025 6.175H3.864l.878 1.411-.264-.176-.263-.088-.263-.177-.264-.176-.175-.177-.264-.088-.176-.265-.263-.176-.176-.176-.263-.177-.176-.264-.175-.177-.176-.265-.176-.176-.175-.265-.176-.264-.175-.177-.088-.264-.176-.265-.088-.265-.175-.264-.088-.265-.088-.353-.088-.265-.088-.264-.087-.265v-.353l-.088-.264v-.353L0 66.42v-.617h3.161v.617l.088.176v.177l.088.176v.177l.088.176v.177l.088.176.087.177.088.176v.176l.088.089.088.176.088.176.175.177.088.088.088.177.088.088.175.176.088.177.176.088.088.088.175.177.088.088.176.088.175.088.088.177.176.088.175.088.176.088.878 1.412zm-.878-1.412.878.441v.97l-.878-1.41zm-2.283 4.588v-3.176h3.161v3.176H3.864zm4.566 1.5v3.175h-.176l-.263-.088h-.439l-.264-.088-.175-.088h-.264l-.175-.089-.264-.088-.175-.176-.176-.089-.176-.088-.175-.176-.176-.088-.175-.177-.176-.176-.176-.177-.087-.088-.176-.176-.088-.177-.176-.264-.087-.177-.088-.176-.088-.177-.088-.264-.088-.177-.087-.265v-.176l-.088-.265V75.155h3.161v.352l.088.089v.176l.088.088v.089h.087v.088l.088.088.088.088.088.088.088.089h.088v.088h.175l.088.088h.351v.088h.088zm1.493-1.5h3.161v.264l-.088.265v.441l-.088.176-.087.265v.177l-.088.264-.088.177-.176.176-.087.177-.088.264-.176.177-.088.176-.175.088-.176.177-.088.176-.175.177-.176.088-.176.176-.263.088-.176.089-.175.176-.176.088h-.263l-.176.088-.263.089-.176.088h-.439l-.264.088H8.43v-3.176h.088l.088-.088h.351l.088-.088h.088l.087-.088.088-.089h.088v-.088h.088v-.088h.088v-.088l.087-.088.088-.089v-.088l.088-.088v-.265l.088-.088v-.176zm3.161-3.176v3.176H9.923v-3.176l.878-1.412 2.283 1.412zm-3.161 0v-.97l.878-.442-.878 1.412zm3.776-6.175h3.161v.882l-.088.353v.264l-.088.353-.087.265-.088.264-.088.265-.088.353-.088.265-.088.264-.175.265-.088.265-.175.264-.176.177-.088.264-.176.265-.175.176-.176.265-.263.177-.176.264-.176.177-.263.176-.176.176-.263.177-.176.176-.263.177-.264.176-.175.177-.264.088-.263.176-1.405-2.823.088-.088.175-.088.176-.088.176-.177.175-.088.088-.088.176-.088.088-.177.175-.088.088-.088.176-.177.087-.176.088-.088.176-.177.088-.088.088-.177.087-.176.088-.176.088-.089.088-.176.088-.176v-.177l.087-.176.088-.177v-.176l.088-.177v-.176l.088-.177V65.804zM16.86 8.639v57.165h-3.161V8.639h3.161zM6.85 1.758h3.16L8.43.17h.44l.438.088h.44l.438.088.351.089.44.088.35.176.44.177.351.088.351.265.352.176.35.176.352.265.264.265.35.264.264.265.264.353.263.265.264.352.263.265.176.353.263.353.176.353.175.44.176.354.088.44.088.354.087.44.088.442.088.353v.882h-3.161v-.794l-.088-.265-.088-.264V7.05l-.088-.177-.088-.264-.175-.265-.088-.176-.088-.265-.175-.176-.176-.265-.088-.176-.175-.177-.176-.176-.176-.177-.263-.176-.176-.177-.175-.176-.264-.088-.175-.177-.264-.088-.175-.088-.264-.088-.263-.089-.264-.088-.263-.088H9.22l-.263-.088H8.43L6.85 1.758zm1.58 1.588H6.85V1.758l1.58 1.588zm1.58-1.588H6.85L8.43.17l1.58 1.588zM8.43.17h1.58v1.588L8.43.17zM40.218 8.11h3.688V4.492h2.898v3.616h3.6v2.647h-3.6v3.705h-2.898v-3.705h-3.688V8.109zM62.26 4.316h-5.182l-.614 2.558c.35-.088.702-.088 1.053-.088 1.669 0 3.162.618 4.04 1.5 1.23 1.323 1.405 2.911 1.405 3.793 0 1.676-.527 3-1.58 4.146-1.318 1.235-2.635 1.588-4.304 1.588-.878 0-2.195-.088-3.424-.705-.615-.265-1.318-.794-1.844-1.324l.965-2.646c.44.617.966 1.058 1.669 1.411.703.441 1.493.618 2.283.618 1.23 0 1.932-.53 2.371-.97.44-.442.79-1.236.79-2.294 0-.882-.263-1.588-.878-2.117-.79-.706-1.756-.794-2.459-.794-1.141 0-2.195.264-3.336.97l1.844-8.204h7.2v2.558z"/>
	<path fill="#fff" d="M11.152 14.197h4.128v3.175h-4.128v-3.175zM11.152 27.87h4.128v3.264h-4.128V27.87zM11.152 41.632h4.128v3.176h-4.128v-3.176zM11.152 55.306h4.128v3.264h-4.128v-3.264zM6.937 7.757h8.342v3.175H6.937V7.757zM6.937 62.187h8.342v3.175H6.937v-3.175zM6.937 34.928h8.342v3.175H6.937v-3.175zM6.937 48.601h8.342v3.176H6.937v-3.176zM6.937 21.342h8.342v3.176H6.937v-3.176zM28.978 10.932h-10.01V7.757h10.01v3.175zM28.978 65.362h-10.01v-3.175h10.01v3.175zM68.757 9.786c0 4.058 1.669 5.557 2.986 5.557 1.317 0 2.986-1.5 2.986-5.557 0-4.147-1.669-5.646-2.986-5.646-1.317 0-2.986 1.5-2.986 5.646zm-3.073 0c0-5.47 2.898-8.205 6.06-8.205 3.073 0 5.97 2.735 5.97 8.205 0 5.38-2.897 8.204-5.97 8.204-3.162 0-6.06-2.823-6.06-8.204zM40.218 62.187h3.688V58.57h2.898v3.617h3.6v2.646h-3.6v3.705h-2.898v-3.705h-3.688v-2.646zM56.99 71.626h3.074V55.394H54.62v2.735h2.37v13.497z"/>
</svg>
