<svg xmlns="http://www.w3.org/2000/svg" width="104" height="80" fill="none" viewBox="0 0 104 80">
	<path fill="#fff" d="M92.694 61.362 82.62 57.65l-.04.159.118-.119-.078-.04-.04.159.118-.119c-.04 0-.196-.197-.274-.513a3.263 3.263 0 0 1-.196-1.106V20.336c0-.395.078-.711.156-.87l.04-.039-.275-.276v.355l.275-.079-.275-.276v.355-.395l-.117.356.117.04v-.396l-.117.356 10.036 3.712.627-1.698-10.075-3.673-.47-.118c-.354 0-.667.158-.903.355-.627.593-.784 1.382-.784 2.29v35.736c0 .671.118 1.343.353 1.895.236.553.51 1.066 1.216 1.382l10.036 3.673.627-1.659z"/>
	<path fill="#fff" d="M92.38 11.925h-.901v66.061c0 1.106.902 2.014 2 2.014h7.723a2.015 2.015 0 0 0 1.999-2.014V11.925c0-1.145-.902-2.053-1.999-2.053h-7.724c-1.097 0-1.999.908-1.999 2.053h1.803l.196-.237h7.724l.235.237v66.061l-.235.237h-7.724l-.196-.237V11.925h-.901zM11.189 63.02l10.036-3.672c.706-.316.98-.829 1.215-1.382.236-.552.353-1.224.353-1.895V20.336c0-.593-.078-1.145-.313-1.62l-.47-.67c-.236-.198-.55-.356-.902-.356l-.51.118h.04L10.6 21.481l.588 1.698 10.036-3.712-.117-.355v.394l.117-.04-.117-.355v.395-.395l-.275.316.275.08v-.396l-.275.316.079-.079-.079.04v.04l.079-.08-.079.04c.04.04.196.434.196.948V56.07c0 .434-.117.908-.235 1.224l-.157.355-.078.04.117.119-.039-.158-.078.039.117.119-.039-.158-10.036 3.711.588 1.659z"/>
	<path fill="#fff" d="M9.778 10.78v-.908H2.054c-1.097 0-2 .908-2 2.053v66.061c0 1.106.903 2.014 2 2.014h7.724c1.097 0 1.999-.908 1.999-2.014V11.925c0-1.145-.902-2.053-2-2.053v1.816l.236.237v66.061l-.235.237H2.054l-.235-.237V11.925l.235-.237h7.724v-.908zM50 50.582c-.98 3.278-1.92 6.279-2.744 9.28-.627 2.33-1.607 4.422-2.861 6.436-2.314 3.633-4.509 7.384-6.783 11.056-2.078 3.238-6.116 3.357-8.272.277-1.372-1.935-1.02-3.988.04-5.963 1.293-2.369 2.587-4.738 4.116-7.028 3.018-4.58 4.783-9.596 5.998-14.926 1.411-6.318 3.136-12.636 4.744-18.954.039-.316.117-.671.196-1.106-1.725.435-2.901 1.106-3.49 2.883-.94 3.001-2.195 5.883-3.332 8.845-.94 2.37-2.9 3.238-5.253 2.33-1.882-.711-2.548-2.843-1.608-5.094 1.49-3.79 3.058-7.542 4.548-11.333.745-1.974 1.882-3.593 3.685-4.778 2.98-1.974 5.842-4.067 8.9-5.883 3.371-2.014 7.017-1.737 10.389-.158 1.254.592 2.274 2.053 2.94 3.317 1.96 3.633 3.646 7.384 5.489 11.017a4.992 4.992 0 0 0 1.529 1.737c2.273 1.54 4.665 3.04 6.978 4.541 1.254.83 2 1.935 1.843 3.514-.236 2.37-2.314 3.712-4.509 2.922-.47-.158-.94-.434-1.372-.71-1.176-.672-2.274-1.461-3.45-2.133-3.41-1.816-6.351-4.185-8.468-7.542-.157-.237-.392-.434-.784-.868-.353 1.816-.51 3.474-1.02 4.975-1.215 3.475-.352 6.16 2.157 8.806 2.587 2.803 4.743 6.04 6.939 9.2.784 1.105 1.294 2.448 1.529 3.79.94 5.134 1.686 10.267 2.47 15.4.51 3.12-.863 4.976-4.038 5.489-2.705.434-4.822-1.145-5.332-3.949-.51-3.04-1.059-6.08-1.568-9.16-.275-1.738-.628-3.436-.863-5.173-.157-1.264-.705-2.251-1.607-3.199-2.352-2.487-4.626-5.054-7.135-7.858zM63.213 7.502c0 4.107-3.333 7.385-7.37 7.345-4.117 0-7.41-3.396-7.332-7.581A7.38 7.38 0 0 1 56 0c4.038.04 7.292 3.396 7.214 7.502z"/>
</svg>
