<svg xmlns="http://www.w3.org/2000/svg" width="73" height="80" fill="none" viewBox="0 0 73 80">
	<path fill="#fff" d="M21.783 50.658c-.92 3.158-1.97 6.184-2.758 9.21-.656 2.369-1.575 4.474-2.888 6.448-2.364 3.684-4.464 7.368-6.828 11.052-2.1 3.29-6.171 3.422-8.272.264-1.444-1.974-1.05-3.948 0-5.921 1.313-2.369 2.626-4.737 4.202-6.974 3.02-4.605 4.727-9.605 6.04-15 1.313-6.316 3.15-12.632 4.727-18.948 0-.394.13-.657.13-1.052-1.706.395-2.888 1.053-3.413 2.763-1.05 3.026-2.232 5.921-3.414 8.947-.919 2.369-2.888 3.158-5.252 2.237-1.838-.658-2.626-2.763-1.707-5.131 1.576-3.685 3.151-7.5 4.596-11.316.788-1.974 1.97-3.553 3.808-4.737 2.888-1.974 5.777-4.079 8.928-5.921 3.414-1.974 6.959-1.71 10.373-.132 1.313.658 2.363 2.106 3.02 3.29 1.97 3.684 3.676 7.5 5.514 11.053.394.657.92 1.315 1.576 1.71 2.232 1.579 4.595 3.026 6.959 4.605 1.313.79 1.97 1.974 1.838 3.553-.263 2.368-2.232 3.684-4.464 2.895a4.85 4.85 0 0 1-1.445-.658c-1.181-.79-2.232-1.58-3.413-2.237-3.414-1.842-6.434-4.21-8.535-7.5-.131-.263-.394-.395-.788-.921-.394 1.842-.525 3.552-1.05 5-1.182 3.42-.394 6.184 2.232 8.816 2.495 2.763 4.727 6.052 6.959 9.21.788 1.053 1.313 2.5 1.575 3.816.92 5.132 1.576 10.263 2.364 15.395.525 3.158-.788 5-4.07 5.526-2.626.395-4.858-1.184-5.252-3.947-.526-3.158-1.05-6.184-1.576-9.21-.394-1.711-.657-3.422-.92-5.132-.13-1.316-.656-2.369-1.575-3.29-2.363-2.5-4.727-5-7.221-7.763zM35.044 7.5a7.349 7.349 0 0 1-7.353 7.368c-4.201 0-7.484-3.42-7.353-7.631 0-4.08 3.414-7.237 7.484-7.237s7.353 3.421 7.222 7.5zM58.416 76.316c.262-.263.656-.79.656-1.71 0-.79-.262-1.316-.656-1.711-.525-.527-1.05-.658-1.707-.658s-1.182.263-1.576.658c-.525.526-.788 1.052-.788 1.71 0 .658.263 1.316.788 1.71.263.395.788.659 1.576.659s1.444-.264 1.707-.658zm.788-9.737-3.02 3.947c.394-.131.787-.263 1.444-.263.919 0 1.97.395 2.757 1.053.657.658 1.182 1.71 1.182 3.158 0 1.052-.263 2.105-1.182 3.026-1.05 1.184-2.232 1.447-3.545 1.447-1.444 0-2.626-.263-3.676-1.315-.657-.658-1.182-1.711-1.182-3.027 0-1.579.656-2.895 1.575-4.079l3.677-5 1.97 1.053zM65.375 72.237c0 3.42 1.313 4.605 2.494 4.605 1.05 0 2.364-1.184 2.364-4.605 0-3.29-1.313-4.474-2.364-4.474-1.181 0-2.494 1.184-2.494 4.474zm-2.495 0c0-4.342 2.363-6.58 4.99-6.58 2.494 0 4.857 2.238 4.857 6.58 0 4.474-2.363 6.71-4.858 6.71-2.626 0-4.99-2.237-4.99-6.71z"/>
</svg>
