<svg xmlns="http://www.w3.org/2000/svg" width="60" height="80" fill="none" viewBox="0 0 60 80">
	<path fill="#fff" d="M26.449 75.633c4.653-3.429 7.592-7.592 7.837-13.225.245-9.306-5.388-16.163-14.694-17.388-1.47-.245-1.715-.734-1.715-1.959V22.98c0-2.94 1.47-4.409 3.674-4.409 2.449 0 3.918 1.715 3.918 4.409v16.653c0 .734-.49 1.714.735 1.714.98 0 .735-1.224.735-1.714V9.265c.49-1.959 2.204-3.183 4.163-3.183 1.96.245 3.184 1.714 3.184 3.673.245 5.388 0 10.776 0 16.163 0 4.164 0 8.572.245 12.735 0 .98-.735 2.694.734 2.694 1.47 0 .735-1.714.735-2.694.245-11.265 0-22.775.245-34.04 0-2.94 1.714-4.409 4.163-4.164 1.96.245 3.184 1.96 3.184 4.408V39.633c0 .734-.245 1.714.734 1.714 1.225 0 .735-.98.735-1.714 0-8.817 0-17.633.245-26.204 0-.98 0-1.96.245-2.94.49-1.713 1.714-2.693 3.673-2.448 1.715 0 3.184.98 3.184 2.939.245 6.857.245 13.714.245 20.816v.49c-3.429 3.673-1.714 8.081-1.96 12.49 0 2.693-.979 4.408-3.183 5.877-3.184 1.96-6.367 4.163-7.347 8.327-.245.734-.245 1.714-.245 2.694 0 .49 0 .98.735.98.49 0 .735-.49.735-.98.245-4.898 3.183-7.592 6.857-9.796 2.939-1.715 4.408-3.919 4.163-7.347a41.887 41.887 0 0 1 0-7.837c0-2.45 1.47-3.919 3.673-3.919 1.96 0 3.674 1.715 3.674 3.919-.245 8.326.49 16.408-.245 24.735-.98 7.591-5.143 13.224-12.245 16.163-7.102 3.183-13.959 2.449-20.816-1.96z"/>
	<path fill="#FEFEFE" d="M17.388 44.53v.98A15.364 15.364 0 0 1 32.816 60.94h.98-.98c-.245 8.571-6.857 15.428-15.428 15.428h-.245c-8.572 0-15.184-6.857-15.184-15.673h-.735l.735.245v-.245h-.735l.735.245v-.245c0-8.327 6.857-15.184 15.429-15.184v-1.959C7.592 43.551 0 51.143 0 60.694h.98H0c0 9.796 7.592 17.632 17.143 17.632h.245c9.55 0 17.143-7.591 17.387-17.387 0-4.898-1.959-9.061-5.142-12.245-3.184-3.184-7.592-5.143-12.245-5.143v.98z"/>
	<path fill="#fff" d="M27.673 55.551c-.49-.49-1.224-.49-1.469 0l-8.816 8.816-8.817-8.816c-.49-.49-.98-.49-1.469 0-.49.245-.49.98 0 1.47l9.551 9.305c.245.245.49.49.735.49s.49-.245.734-.49l9.551-9.306c.245-.49.245-1.224 0-1.469z"/>
</svg>
