<svg xmlns="http://www.w3.org/2000/svg" viewBox="0 0 120.213 30.84">
	<g fill="#204289">
		<path d="M25.029 29.971V.847h17.359v7.038l-9.273.002v4.105l8.364-.001v6.439l-8.364.009v4.612l9.254.002v6.918zM12.139.828h-.958L0 .843v29.128h8.01l.009-9.536 3.146.001.933.006c8.356-.015 10.581-5.957 10.581-9.813-.001-3.821-2.208-9.811-10.54-9.801m-.409 13.073a2.196 2.196 0 0 1-.542.096l-.831.002-2.303.002.003-6.704 2.29-.001c.309-.002.682.018.891.041 2.726.226 3.037 2.054 3.032 3.333.001.731-.063 2.68-2.54 3.231M93.658 28.634c-2.584 1.829-5.266 2.194-7.781 2.206-8.18.003-14.797-5.619-14.79-15.399C71.097 5.258 78.369.004 85.802 0c2.563-.015 5.425.671 7.864 2.311l-.003 8.478c-1.066-1.258-3.368-3.489-6.824-3.488-4.67.009-7.37 3.805-7.374 8.365 0 5.116 3.363 7.904 7.363 7.897 2.942-.005 5.313-1.577 6.83-3.149v8.22zM120.213 19.939c.009-5.942-3.857-10.831-11.927-10.808-8.054 0-11.947 4.879-11.951 10.816-.013 6.135 3.988 10.762 11.933 10.756 8.058-.002 11.945-4.828 11.945-10.764m-7.505.004c.003.771-.069 5.569-4.433 5.572-4.386.003-4.432-4.796-4.438-5.572.008-3.215 1.443-5.571 4.443-5.581 2.944.01 4.435 2.351 4.428 5.581M63.461 19.641c4.568-1.719 5.919-5.992 5.919-9.009 0-3.678-2.037-9.331-9.626-9.77-.501-.028-.901-.016-1.092-.018h-11.96V29.97h8.041l.015-9.535h.008l2.863 4.563 3.254 4.972h9.738l-7.16-10.329zm-5.029-5.724a2.18 2.18 0 0 1-.541.096l-.83.002-2.304.002.004-6.704 2.29-.001c.306-.002.68.018.89.041 2.726.226 3.037 2.054 3.032 3.333 0 .731-.064 2.679-2.541 3.231"/>
	</g>
</svg>
