<svg width="55" height="50" viewBox="0 0 55 50" fill="none" xmlns="http://www.w3.org/2000/svg">
<path d="M55 12.1001H0V49.9001H55V12.1001Z" fill="#B3B3B3"/>
<path fill-rule="evenodd" clip-rule="evenodd" d="M8.89995 9.3001H8.09995C7.79995 9.3001 7.19995 9.0001 7.19995 8.8001V0.700098C7.19995 0.400098 7.79995 0.100098 7.99995 0.100098H8.79995C9.09995 0.100098 9.39995 0.400098 9.39995 0.700098V8.8001C9.39995 9.0001 9.19995 9.3001 8.89995 9.3001Z" fill="white"/>
<path fill-rule="evenodd" clip-rule="evenodd" d="M48.9 5.7002V9.6002C48.9 9.9002 48.6 10.2002 48.3 10.2002H45.2C44.6 10.2002 44.4 9.9002 44.4 9.6002V5.7002H10.6V9.6002C10.6 9.9002 10.3 10.2002 10 10.2002H6.9C6.6 10.2002 6.3 9.9002 6.3 9.6002V5.7002H3.3C1.4 5.7002 0 7.4002 0 9.0002V12.1002H55V9.0002C55 7.3002 53.6 5.7002 51.9 5.7002H48.9Z" fill="white"/>
<path fill-rule="evenodd" clip-rule="evenodd" d="M47.2001 9.3001H46.4001C45.8001 9.3001 45.6001 9.0001 45.6001 8.7001V0.700098C45.6001 0.400098 45.9001 0.100098 46.4001 0.100098H47.2001C47.5001 0.100098 47.8001 0.400098 47.8001 0.700098V8.8001C47.8001 9.0001 47.5001 9.3001 47.2001 9.3001Z" fill="white"/>
</svg>
