<svg xmlns="http://www.w3.org/2000/svg" width="44" height="42" fill="none" viewBox="0 0 44 42">
	<path fill="gray" d="M32.7 21.7c-.5-.2-1.7-1.3-1.8-1.9-.2-.8-.2-1.8 0-2.8C32 9.4 26 6.6 24.4 6.3c-2.7-.5-4.7-.2-6.7.8-2.7 1.5-4.4 4.6-4.9 6.8l-1.6-.3c.5-2.7 2.5-6.2 5.7-7.9 2.3-1.3 4.7-1.6 7.8-1 2.9.6 8.9 4.5 7.8 12.5-.1.8-.1 1.6 0 2.2.1.2.6.7.8.8-.3-.1-.6 1.5-.6 1.5z"/>
	<path fill="gray" d="M32.5 24.9c-.9 0-1.8-.3-2.6-.8-2.8-1.9-2.5-4.5-2.3-5.7 0-.2.1-.4.1-.5 0-2.3-.1-4.1-.9-5.6-.9-1.7-1.5-2.1-3-2.8-1.3-.6-3.7-.1-5 1-1.5 1.2-2.2 2.1-2.6 3.5-.3 1.1-.7 2.4-1.7 3.2-.9.8-1.7.8-2.5.7h-.6v-1.6h.7c.6 0 .9 0 1.3-.3.6-.6.9-1.5 1.2-2.4.6-2.1 1.7-3.3 3.1-4.4 1.8-1.5 4.8-2 6.6-1.2 2 .9 2.8 1.6 3.8 3.5.9 1.8 1.1 3.8 1.1 6.3 0 .2 0 .4-.1.7-.2 1.2-.4 2.8 1.6 4.2.6.4 1.3.6 1.9.5l.1 1.6s-.1.1-.2.1z"/>
	<path fill="gray" d="M11.8 28.3c-.3 0-.1-1.6-.1-1.6.6-.1 6.9-2 9.2-3.6 2-1.4 2.5-3 3.1-6.1.2-.8.3-2.1 0-2.8-.6-1.7-1.8-1.9-2.2-1.8-.7.2-1.6.6-1.9 1.3-.3.5-.5 1.1-.7 1.8-.4 1.3-.9 2.7-2 3.8-.8.8-4.6 2.5-6.1 2.1l.4-1.5c.7.2 4-1.1 4.6-1.6.8-.9 1.2-2 1.6-3.2.2-.7.4-1.3.8-2 .6-1.2 1.9-1.9 3-2.1 1.2-.3 3.3.4 4.1 2.9.4 1.3.1 3.1 0 3.6-.6 3.2-1.2 5.2-3.8 7.1-1.1.8-3.1 1.7-5.9 2.6-2.6.7-3.6 1.1-4.1 1.1z"/>
	<path fill="gray" d="M11.6 24.6h-.5l.1-1.6c.6 0 6.3.2 8.8-4.2.5-.8 1.2-3.6 1.2-4.1 0 .1 1.2-.9 1.2-.9 1.2.8-1 5.8-1 5.8-2.6 4.6-8.1 5-9.8 5zM32.2 27.6c-2.2 0-6-1-7.3-3.1l1.4-.8c.8 1.3 3.8 2.3 5.9 2.3v1.6zM13 31.1l-.4-1.5c.4-.1 1.2-.3 2.1-.6 3.9-1.1 7.6-2.1 8.8-2.1.7 0 2.2.6 4.5 1.5 1.1.4 2.2.9 3 1.1l-.5 1.5c-.8-.3-2-.7-3.1-1.2-1.4-.6-3.4-1.4-4-1.4-1.1 0-5.8 1.3-8.3 2-1 .4-1.7.6-2.1.7z"/>
	<path fill="gray" d="m15.5 34-.5-1.5.4-.1c2.6-.9 6.3-2.1 8.1-2.1.9 0 5.7 2.3 5.8 2.3l-.7 1.4c-1.2-.6-4.5-2.1-5.1-2.1-1.1 0-3.7.7-7.6 2l-.4.1z"/>
	<path fill="gray" d="m18.2 36.3-1-1.2c.8-.7 3.9-1.1 4.1-1.1h.3c1.1-.2 3.3-.5 5.2 1l-1 1.2c-1.3-1.1-2.9-.8-3.9-.7l-.3.1c-1.3.1-3 .5-3.4.7zM38.3 41.6h-6.1V40h6.1c1.8 0 3.3-1.5 3.3-3.3V31h1.6v5.7c0 2.7-2.2 4.9-4.9 4.9zm-27.3 0H4.9c-2.7 0-4.9-2.2-4.9-4.9V31h1.6v5.7c0 1.8 1.5 3.3 3.3 3.3H11v1.6zm32.2-31h-1.6V4.9c0-1.8-1.5-3.3-3.3-3.3h-6.1V0h6.1c2.7 0 4.9 2.2 4.9 4.9v5.7zm-41.6 0H0V4.9C0 2.2 2.2 0 4.9 0H11v1.6H4.9c-1.8 0-3.3 1.5-3.3 3.3v5.7z"/>
</svg>
