<svg xmlns="http://www.w3.org/2000/svg" width="58" height="39" fill="none" viewBox="0 0 58 39">
	<path fill="gray" d="M53.3 38.2H4.4C2 38.2 0 36.1 0 33.6v-29C0 2 2 0 4.4 0h48.9c2.4 0 4.4 2.1 4.4 4.6v28.9c0 2.6-1.9 4.7-4.4 4.7zM4.4 1.5c-1.6 0-2.9 1.4-2.9 3.1v28.9c0 1.7 1.3 3.1 2.9 3.1h48.9c1.6 0 2.9-1.4 2.9-3.1V4.6c0-1.7-1.3-3.1-2.9-3.1H4.4z"/>
	<path fill="gray" d="M18.7 17.4h-4.8l-1.1 1.2 1.1 1.1h4.8l1.1-1.1-1.1-1.2zM18.7 25.7h-4.8l-1.1 1.2 1.1 1.1h4.8l1.1-1.1-1.1-1.2zM18.7 9.7h-4.8l-1.1 1.2 1.1 1.2h4.8l1.1-1.2-1.1-1.2zM19.4 12.2v5.1l1.1 1.2 1.1-1.2v-5.1L20.5 11l-1.1 1.2zM19.4 20.5v5.1l1.1 1.2 1.1-1.2v-5.1l-1.1-1.2-1.1 1.2zM42 9.7h-4.8l-1.1 1.2 1.1 1.2H42l1.1-1.2L42 9.7zM42.7 12.2v5.1l1.1 1.2 1.1-1.2v-5.1L43.8 11l-1.1 1.2zM42.7 20.5v5.1l1.1 1.2 1.1-1.2v-5.1l-1.1-1.2-1.1 1.2zM22.4 20.5v5.1l1.1 1.2 1.1-1.2v-5.1l-1.1-1.2-1.1 1.2zM29.9 17.4h-4.8L24 18.6l1.1 1.1h4.8l1.1-1.1-1.1-1.2zM29.9 25.7h-4.8L24 26.9l1.1 1.1h4.8l1.1-1.1-1.1-1.2zM29.9 9.7h-4.8L24 10.9l1.1 1.2h4.8l1.1-1.2-1.1-1.2zM22.4 12.2v5.1l1.1 1.2 1.1-1.2v-5.2L23.5 11l-1.1 1.2zM30.6 20.5v5.1l1.1 1.2 1.1-1.2v-5.1l-1.1-1.2-1.1 1.2zM36 26.5h-1.9v2H36v-2z"/>
</svg>
