<svg xmlns="http://www.w3.org/2000/svg" width="44" height="56" fill="none" viewBox="0 0 44 56">
	<path fill="gray" d="M34.9 40.9h-1.6c0-3.8-5-8.3-11.4-8.3S10.6 37 10.6 40.9H9c0-4.7 5.5-9.9 13-9.9s12.9 5.2 12.9 9.9zM22 30.1c-3.8 0-6.9-3-6.9-6.6 0-3.7 3.1-6.6 6.9-6.6 3.8 0 6.9 3 6.9 6.6-.1 3.6-3.2 6.6-6.9 6.6zm0-11.7c-2.9 0-5.3 2.3-5.3 5s2.4 5 5.3 5 5.3-2.3 5.3-5-2.4-5-5.3-5zM32 31.3h-3.3v-1.6H32c.8 0 1.5-.7 1.5-1.5v-3.1H35v3.1c0 1.7-1.4 3.1-3 3.1zm-16.6 0H12c-1.7 0-3.1-1.4-3.1-3.1v-3.1h1.6v3.1c0 .8.7 1.5 1.5 1.5h3.3v1.6h.1zM35 20.5h-1.6v-3.1c0-.8-.7-1.5-1.5-1.5h-3.3v-1.6H32c1.7 0 3.1 1.4 3.1 3.1v3.1H35zm-24.4 0H9v-3.1c0-1.7 1.4-3.1 3.1-3.1h3.3v1.6H12c-.8 0-1.5.7-1.5 1.5v3.1h.1z"/>
	<path fill="gray" d="M39.3 56H4.7C2.1 56 0 53.9 0 51.3V4.7C0 2.1 2.1 0 4.7 0h34.6C41.9 0 44 2.1 44 4.7v46.5c0 2.7-2.1 4.8-4.7 4.8zM4.7 1.6C3 1.6 1.6 3 1.6 4.7v46.5c0 1.7 1.4 3.1 3.1 3.1h34.6c1.7 0 3.1-1.4 3.1-3.1V4.7c0-1.7-1.4-3.1-3.1-3.1H4.7z"/>
</svg>
