<svg xmlns="http://www.w3.org/2000/svg" width="51" height="51" fill="none" viewBox="0 0 51 51">
	<path fill="#fff" d="M25.153 50.307c13.892 0 25.154-11.262 25.154-25.154C50.307 11.262 39.045 0 25.153 0 11.262 0 0 11.261 0 25.153s11.261 25.154 25.153 25.154z"/>
	<path fill="#B3B3B3" fill-rule="evenodd" d="M46.626 25.153c0 11.964-9.51 21.473-21.473 21.473S3.374 37.116 3.374 25.153 13.19 3.374 25.154 3.374c11.963 0 21.472 9.816 21.472 21.78z" clip-rule="evenodd"/>
	<path fill="#fff" fill-rule="evenodd" d="M32.515 17.791H25.46l-.92 3.681h.92c1.84 0 3.988.614 5.215 2.148 1.227.92 2.147 2.76 2.147 5.828 0 2.454-.614 4.294-2.147 5.828-1.84 1.84-3.988 2.147-6.442 2.147-1.227 0-2.76 0-4.294-.92-.307-.307-1.534-.92-2.454-2.454l2.454-2.147s.613 1.227 1.84 1.84c.614.614 1.84.92 2.76.92 1.841 0 3.068-.92 3.375-1.533.92-.614 1.534-1.84 1.534-3.681 0-1.84-.614-3.068-1.227-3.681-1.227-.92-2.76-1.227-3.681-1.227-1.227 0-1.84 0-2.76.613-.614 0-1.228.307-1.841.92l3.067-11.35h9.51v3.068z" clip-rule="evenodd"/>
</svg>
