<svg xmlns="http://www.w3.org/2000/svg" width="82" height="50" fill="none" viewBox="0 0 82 50">
	<g fill-rule="evenodd" clip-path="url(#icon-about-2-a)" clip-rule="evenodd">
		<path fill="#B3B3B3" d="m49.2 37.61 1.315-1.393.774.774v1.392l-1.315 1.315H49.2V37.61zm28.7 10.056 2.398-2.398v-.928l.696-.62L82 44.727l-3.481 3.559-.619-.619zm-3.713-.85V45.5h1.237v.696l-.696.62h-.541zm-6.885-3.405v-3.945l1.005-1.006h1.16l1.703-1.624.387.387 1.624-1.625.774.774-.464.696.773.696h.542v-.928l.541-.619.387.464v1.78l1.625 1.624v3.249l-1.625 1.547h-2.708v-1.856l-.541-.62H71.17l-.851.929h-3.017v.077zm6.034-9.824h3.094l.928.928v1.238h-.696l-.619-.542H74.96l-1.624-1.624zm-3.636-.31.541.465v.773h-1.005v-1.238h.464zm-3.094-.928h.541l1.315-1.238.774.774v1.16l-.774.774h-1.934v-1.47h.078zm-3.713-.387.618-.619 2.321 2.244v.619h.619l.31.31h2.165l.62.695h-2.863l-.387-.386H65.6l-2.707-2.863zm9.592-13.46.773-.851 1.16 1.16-1.16 1.083.31.387v1.78l-1.392 1.314h-1.16v-.696l1.314-1.315h.696v-1.238l-.541-.618v-1.006zm-37.132 2.011h1.856v-.773l-.618-.62.696-.696h.619l.773-.773h.31l.541-.542v-1.392h.387l.155.232v.774l.232.232H41l.387-.31h1.47V15.33l.773-.773h-1.238v-1.393l-.309.232v1.393l-.541.541v.929h-.774l-1.006-.929h-1.005v-1.779l3.636-3.636h2.552l.542.542h1.083v1.701l2.707-2.784h2.012V6.975h2.32l3.404-3.403h2.012v1.856l1.547-1.547h2.166l1.315 1.238L65.6 3.572h3.481l.464.464h2.553l.774-.696H77.9v2.94l-1.16 1.237V9.76h-1.16v1.934l.54.542v2.553l-2.165-2.166V9.76h-.851v1.316h-2.012l-1.237 1.237v1.934h2.011v4.487l-1.702 1.78 1.083 1.082-.85.928-1.935-1.933-1.005.928 2.707 2.707v.697l-1.856 1.856h-1.625l-1.16 1.083 1.315 1.315-1.16 1.083-.774-.773-.774.773.928 1.006v.542l.387.386h-.541l-.774-.773v-.542l-.541-.232v-2.166l-.31-.31-.232.31h-.541v-.541L61.5 27.01h-.928l-1.78 1.78v1.392l-.696.774-.541-.62-1.006-1.392v-2.011h-.619l-.85-1.16h-2.554l-.464-.465-.464.465-.773-.697v-.464h-.62v.464l1.548 1.547.541-.618.851.928-2.398 2.398h-1.624v-.85l-.851-.852v-.773l-1.083-1.16h-.697v.928l1.625 1.547v.773l1.392 1.315h1.316v1.548l-2.63 2.398v2.785l-1.161 1.16v1.547l-2.398 2.32H43.01l-1.856-1.856V34.67l-1.315-1.315v-1.16l-.851-.852-.697.62h-2.475l-2.475-2.476v-2.862l3.558-3.559h3.713l.851.774h.696l.465.541.696-.696h2.862l.541-.542v-.464h-1.701l-.465-.386v-.774h-.773l-.387.31.542.618-.232.232h-.465l-.309-.31v-1.005l-1.47-1.47h-.619v.465l1.547 1.547-.85.928-.542-.387.541-.619-1.701-1.624-.62.619-.386-.387-1.083 1.083v.696l-.542.542h-.928l-.928-.851v-1.393zm1.005-4.95.465-.388.541.542v.542l.774.773v.696l-.387.464h-1.392v-.464l.386-.31V16.8h-.386v-1.238zm-1.005 2.552v-.85l.387-.388v-.386h.618v1.083l-.464.541h-.541zm4.1-14.311h3.171v1.083l-1.083 1.16h-.928L39.376 4.81l.077-1.005zm-6.962 8.122h.85l.774-.85 1.006 1.005-1.238 1.16h-1.315l-.077-1.315zM0 8.986l.85-.85V6.434l1.161-1.16h1.547l1.548-1.548h1.392l3.017 2.94h2.63l2.321 2.32h1.702l.928-.928h1.625l1.16 1.084v1.315l-.928.85H17.87l-1.547 1.548v1.547l2.088 2.089h1.16l.929-.929v-2.63h1.702l1.083 1.16v1.857l1.857 1.78-.774.85-.696-.619h-1.393l-.464.387.696.619-.85.851h-.852l-2.01 2.011v1.083l-1.393 1.315v1.702h-.697v-.541l-.773-.774h-2.553l-.774.774v1.702l.542.541h.774l.618-.619h.62v1.702h1.082v1.238l.464.541.233-.309h.464l.541.541.851-.928h2.553l1.315 1.315h1.47l.696.697v1.083h.851l.619.541h1.547l.928.851v1.16l-1.083 1.006v1.702l-1.856 1.857v1.237l-1.547 1.393h-.851v.85l-1.16 1.161v1.702l-.697.619v1.702l.696.696v.541h-1.547l-.773-.85v-4.797l-.542-.464v-5.57l-.928-.85v-.929l-1.934-1.934v-1.547l1.005-1.083v-.696h-.85l-1.857-1.857h-.928l-.774-.696h-1.006L9.98 26.47h-.464l-1.238-1.238v-1.006L6.421 22.37v-3.713l1.005-1.006v-4.719l-2.32-2.243H3.017l-1.47 1.547L0 11.308V8.987zm24.987-3.403V4.268l2.553-2.553h2.166L30.71.71h2.398l2.398 2.399-2.552 2.707v4.951h-2.012l-1.315 1.315v.851l-2.088 2.089-1.16-1.16v-2.476l.463-.464V5.66l-1.856-.078zm-5.57 1.083h2.166l2.32 2.32v2.012l-1.546 1.625-1.47-1.47h1.16V9.064h-1.47L19.494 8.06l-.077-1.393zm-2.243-.928h1.624v1.856h-1.005l-.62-.85V5.737zm.928-1.393 1.78 1.78h1.856l.773-.697h-2.166l-1.624-1.624-.62.541zm1.934-3.094.773.774-.85.85-.851-.773.928-.851zM14.93 2.643l1.393-1.315h2.088v2.553h-1.934L14.93 2.643zm-1.083 1.548h1.47v1.47h1.625v2.243l-.697.696h-1.547l-1.005-1.006v-.696l-.851-.773v-.851l1.005-1.083zm7.272 0V1.406L22.279.09h4.642l.928.928-1.315 1.392h-1.625l-2.63 2.785-1.16-1.005z"/>
		<path fill="#fff" d="M45.255 20.281c1.779-.928 3.945-.619 5.337.851l7.891 7.89c1.78 1.78 1.78 4.72 0 6.576a4.717 4.717 0 0 1-6.575 0l-7.89-7.89c-1.47-1.393-1.78-3.559-.852-5.338L32.104 11.307c-.31.078-.542 0-.774-.077l-2.785-1.238c-.077 0-.077-.077-.154-.154a1.067 1.067 0 0 0-.31-.232l-2.398-4.023c-.464-.696-.541-1.47 0-2.011l.774-.774c.541-.542 1.315-.387 2.011 0l4.023 2.475c.077.155.154.233.232.31.077 0 .077.077.154.155l1.238 2.785c.078.232.155.464.078.696L45.255 20.28z"/>
		<path fill="#fff" d="M26.457 29.255 36.59 19.12l4.486 4.487c-.31 1.237-.232 2.475.078 3.713L32.8 35.598c-1.78 1.78-4.564 1.78-6.343 0a4.579 4.579 0 0 1 0-6.343zM41.85 13.938l1.857-1.857c-.851-2.94-.155-6.189 2.088-8.51 2.398-2.475 5.88-3.094 8.896-1.933l-4.486 4.486a3.782 3.782 0 0 0 0 5.338c1.47 1.47 3.868 1.47 5.415 0l4.486-4.487c1.006 3.095.387 6.498-1.933 8.974-2.09 2.089-5.029 2.785-7.736 2.32-1.315-.386-2.863-.386-4.255 0l-4.332-4.331zM28.313 30.802c-.85.773-.85 2.089 0 2.94.774.773 2.166.773 2.94 0 .773-.774.773-2.09 0-2.94-.774-.851-2.166-.851-2.94 0z"/>
	</g>
	<defs>
		<clipPath id="icon-about-2-a">
			<path fill="#fff" d="M0 0h82v50H0z"/>
		</clipPath>
	</defs>
</svg>
