<svg xmlns="http://www.w3.org/2000/svg" width="44" height="60" fill="none" viewBox="0 0 44 60">
	<path fill="#003067" d="M29.4 34.1H13.3c-1.6 0-2.9-1.3-2.9-2.9V2.9c0-1.6 1.3-2.9 2.9-2.9h16.1c1.6 0 2.9 1.3 2.9 2.9v28.3c.1 1.6-1.2 2.9-2.9 2.9zM13.3 1.6c-.8 0-1.4.6-1.4 1.3v28.3c0 .7.6 1.3 1.4 1.3h16.1c.8 0 1.4-.6 1.4-1.3V2.9c0-.7-.6-1.3-1.4-1.3H13.3zM43.6 59.4H42V41.7c0-1.4-1.2-2.6-2.6-2.6H4.2c-1.5 0-2.6 1.2-2.6 2.6v17.7H0V41.7c0-2.3 1.9-4.1 4.2-4.1h35.2c2.3 0 4.2 1.9 4.2 4.1v17.7z"/>
	<path fill="#003067" d="M34.1 45.2H8.6v1.6h25.5v-1.6zM39.4 54.3H4.2c-2.3 0-4.2-1.9-4.2-4.1h1.6c0 1.4 1.2 2.6 2.6 2.6h35.2c1.5 0 2.6-1.2 2.6-2.6h1.6c0 2.3-1.9 4.1-4.2 4.1z"/>
</svg>
