<svg xmlns="http://www.w3.org/2000/svg" width="58" height="43" fill="none" viewBox="0 0 58 43">
	<path fill="gray" d="M53 42.8h-5.9v-1.5H53c1.8 0 3.2-1.6 3.2-3.5v-5.9h1.5v5.9c.1 2.7-2 5-4.7 5zm-42.4 0H4.8c-2.6 0-4.8-2.3-4.8-5v-5.9h1.5v5.9c0 1.9 1.4 3.5 3.2 3.5h5.9v1.5zm47.2-31.9h-1.5V5c0-1.9-1.4-3.5-3.2-3.5h-5.9V0h5.9c2.6 0 4.8 2.3 4.8 5v5.9h-.1zm-56.3 0H0V5c0-2.8 2.1-5 4.8-5h5.9v1.5H4.8C3 1.5 1.6 3.1 1.6 5v5.9h-.1zM41.4 7.3h-2v28.2h2V7.3zM32.8 7.3h-1.5v28.2h1.5V7.3zM35.1 7.3h-1.5v28.2h1.5V7.3zM39.1 7.3h-1.5v28.2h1.5V7.3zM46.4 7.3h-1.5v28.2h1.5V7.3zM44.6 7.3h-1.5v28.2h1.5V7.3zM49.1 7.3H48v28.2h1.1V7.3zM16.5 7.3H15v28.2h1.5V7.3zM11.5 7.3H8.7v28.2h2.8V7.3zM19.3 7.3h-2v28.2h2V7.3zM27 7.3h-1.1v28.2H27V7.3zM28.3 7.3h-1.1v28.2h1.1V7.3zM24.2 7.3h-2v28.2h2V7.3z"/>
</svg>
