<svg xmlns="http://www.w3.org/2000/svg" width="49" height="50" fill="none" viewBox="0 0 49 50">
	<path fill="#B3B3B3" d="M23.7 42.5c11.9 0 21.5-9.5 21.5-21.2C45.3 9.5 35.6 0 23.7 0S2.2 9.5 2.2 21.3c0 11.7 9.6 21.2 21.5 21.2z"/>
	<path fill="#fff" fill-rule="evenodd" d="m29.3 27.5.9-.9.3.3v.9l-.9.9h-.3v-1.2zm17.2 5.9 1.6-1.6v-.3l.3-.3.6.3-2.2 2.2-.3-.3zm-2.2-.6v-.6h.6v.3l-.3.3h-.3zm-4-1.9v-2.5l.6-.3h.6l.9-1.2.3.3.9-.9.3.6v.3l.3.3h.3v-.6l.3-.3.3.3v1.2l.9.9v1.9l-.9.9h-1.6v-1.2l-.3-.3h-.9l-.6.6h-1.4zm3.4-5.9h1.9l.6.6v.6h-.6l-.3-.3h-.6l-1-.9zm-2.2-.3.3.3v.6h-.6v-.9h.3zm-1.9-.3h.3l.9-.9.3.6v.6l-.3.6h-1.2v-.9zm-2.1-.3.3-.3 1.6 1.2v.3h.3v.3h1.6l.3.3h-1.9v-.3H39l-1.5-1.5zm5.6-8.2.6-.3.6.6-.6.6.3.3v.9l-.9.9h-.6v-.6l.6-.6h.6v-.6l-.6-.6v-.6zm-21.9 1.3h.9v-.3l-.3-.6.3-.3h.3l.6-.3.3-.3v-.9h.3v.5l.3.3h.3l.3-.3h.9v-.6l.3-.6h-.6v-.9l-.1.2v.9l-.3.3v.3h-.3l-.6-.6h-.6v-.9l2.2-2.2H27l.3.3h.6v.9l1.6-1.6h1.2V9.1h1.2L34 7.2h1.2v.9l.6-.6h1.6l.6.6 1-.9h2.2l.3.3h1.2l.6-.6h3.1v1.9l-.6.6V11h-.9v.9l.6.3v1.6L44 12.5V11h-.3v.6h-1.2l-.6.9v.9h.9v2.8l-.9.9.6.9-.6.3-.9-.9-.6.3 1.6 1.6v.7l-.9 1.2h-1.2l-.9.7.9.6-.6.6-.6-.3-.6.3.6.6v.3l.3.3h-.3l-.6-.6v-1.5l-.3-.3h-.3v-.3l-.6-.3h-.6l-.9.9v.9l-.6.3-.3-.3-.5-.9V21h-.6l-.6-.6h-1.2l-.4-.4-.3.3-.6-.3v-.3H30v.3l.9.9.3-.3.6.3-1.6 1.6h-.9v-.6l-.6-.3V21l-.6-.6h-.3v.6l.9.9v.3l.6.9h.9v.6l-1.6 1.6v1.9l-.6.6v.9L26.5 30h-.9l-1.2-.9v-3.4l-.7-.7v-.9l-.6-.3-.3.3h-1.6L20 22.5v-1.6l1.9-2.2h2.5l.3.3h.3l.3.3.3-.3h1.9l.3-.3v-.3h-.9l-.3-.3v-.3h-.3l-.3.3.3.3h-.6v-.6l-.9-.9h-.3v.3l.9.9-.6.6-.3-.3.3-.3-.9-.9-.3.3-.3-.3-.6.6v.3l-.3.6h-.6l-.3-.6v-.9h-.3zm.6-2.8v-.3l.3.3v.3l.6.6v.3l-.3.3h-.6v-1.5zm-.6 1.5V15h.6v.6l-.3.3h-.3zm2.2-8.7h2.2v.9l-.6.7h-.6l-.9-.9v-.7h-.1zm-4 5h.6l.3-.6.6.6-.6.6h-.9v-.6zM0 10.3l.6-.3V8.8l.6-.6h.9l.9-.9h.6l1.9 1.9h1.6l1.6 1.2h.9l.6-.6h.9l.6.6v.9l-.6.6h-.6l-.9.9v.6l1.2 1.2h.9l.3-.3v-1.6h.9l.9.6v.9l.9 1.2-.3.3-.4-.1h-.9v.3l.3.3-.6.6h-.3L11.3 18v.6l-.9.6v1.2H10v-.3l-.3-.6H8.1l-.6.6v.9l.3.3h.6l.3-.3H9v.9h.6v.6l.3.3h.3l.3.3.6-.6h1.6l.6.6h.9l.3.6v.6h.6l.3.3h.9l.6.3v.6l-.6.6v1.2l-1.2.9v.6l-.9 1.2H14v.3l-.9.6v.9l-.3.6v.9l.3.3v.3h-.9l-.3-.3v-2.8l-.3-.3v-3.4l-.6-.6v-.6L9.8 25v-.9l.6-.6v-.3H10L8.8 22h-.7l-.3-.3h-.6L6 20.5h-.4L5 20v-.6l-1.2-.9v-2.2l.6-.6v-2.8l-1.2-1.2H1.9l-.9.9-1-.7v-1.6zm15-1.8v-1L16.5 6h1.2l.6-.3h1.2l1.6 1.2-1.6 1.6v3.1h-1.2l-.9.6v.6l-.9 1.2-.9-.9v-1.2l.3-.3V8.5H15zm-3.5.6h1.2l1.6 1.2v1.2l-1.2.9-.6-.9h.6v-1.2h-.9l-.6-.6v-.6h-.1zm-1.2-.6h.9v1.2h-.6l-.3-.6v-.6zm.6-1 .9 1.2h.9l.6-.6h-1.2l-.9-.9-.3.3zm1-1.9.6.6-.6.6-.3-.6.3-.6zm-3.2 1 1-.6h1.2v1.6H9.7l-1-1zm-.6.9H9v.9h1v1.2l-.3.4h-1l-.6-.6v-.3l-.3-.3v-.7l.3-.6zm4.4 0V6l.6-1h2.8l.6.6-.6.9H15l-1.9 1.6-.6-.6z" clip-rule="evenodd"/>
	<path fill="#FCFCFC" d="m21.954 48.612 4.395-5.667c-.578.23-1.272.347-1.966.347-1.272 0-2.891-.579-4.048-1.62-.925-.925-1.735-2.429-1.735-4.395 0-1.504.463-3.123 1.735-4.395 1.62-1.735 3.354-2.082 5.205-2.082 1.966 0 3.701.347 5.205 1.85 1.04 1.042 1.735 2.43 1.735 4.511 0 2.198-1.041 4.049-2.314 5.668L24.846 50l-2.892-1.388zm1.273-14.11c-.463.462-1.041 1.156-1.041 2.428 0 1.157.347 1.966 1.04 2.545.695.694 1.504.925 2.314.925 1.04 0 1.735-.347 2.429-1.04.694-.695 1.04-1.505 1.04-2.43 0-1.157-.462-1.966-1.04-2.429a3.296 3.296 0 0 0-2.314-.925c-1.272 0-1.966.463-2.428.925zM39.188 43.407c.347-.347 2.429-2.776 3.123-3.817.462-.694 1.04-1.85 1.04-2.891 0-1.62-1.156-2.776-2.775-2.776-1.85 0-2.892 1.503-2.892 3.007H34.1c.115-3.701 2.776-6.13 6.477-6.13 4.28 0 6.477 2.892 6.477 5.783 0 2.776-1.85 4.858-3.354 6.362l-3.123 3.47h6.593v3.122H33.867l5.32-6.13z"/>
</svg>
