<svg xmlns="http://www.w3.org/2000/svg" width="39" height="60" fill="none" viewBox="0 0 39 60">
	<path fill="#003067" d="M32.1 42.7h-1.6c0-3.8-5-8.3-11.4-8.3S7.7 38.9 7.7 42.7H6.2c0-4.7 5.5-9.9 13-9.9 7.4 0 12.9 5.2 12.9 9.9zM19.2 31.9c-3.8 0-6.9-3-6.9-6.6 0-3.7 3.1-6.6 6.9-6.6 3.8 0 6.9 3 6.9 6.6-.1 3.6-3.2 6.6-6.9 6.6zm0-11.7c-2.9 0-5.3 2.3-5.3 5s2.4 5 5.3 5 5.3-2.3 5.3-5-2.4-5-5.3-5zM29.2 33.1h-3.3v-1.6h3.3c.8 0 1.5-.7 1.5-1.5v-3.1h1.5V30c0 1.7-1.4 3.1-3 3.1zm-16.6 0H9.2c-1.7 0-3.1-1.4-3.1-3.1v-3.1h1.6V30c0 .8.7 1.5 1.5 1.5h3.3v1.6h.1zm19.6-10.8h-1.6v-3.1c0-.8-.7-1.5-1.5-1.5h-3.3v-1.6h3.4c1.7 0 3.1 1.4 3.1 3.1v3.1h-.1zm-24.4 0H6.2v-3.1c0-1.7 1.4-3.1 3.1-3.1h3.3v1.6H9.2c-.8 0-1.5.7-1.5 1.5v3.1h.1z"/>
	<path fill="#003067" d="M33.7 59.7h-29c-2.6 0-4.7-2-4.7-4.6V4.6C0 2.1 2.1 0 4.7 0h28.9c2.6 0 4.7 2 4.7 4.6v50.6c0 2.5-2.1 4.5-4.6 4.5zM4.7 1.6c-1.7 0-3.1 1.3-3.1 3v50.6c0 1.6 1.4 3 3.1 3h28.9c1.7 0 3.1-1.3 3.1-3V4.6c0-1.6-1.4-3-3.1-3H4.7z"/>
</svg>
