<?xml version="1.0" encoding="utf-8"?>
<!-- Generator: Adobe Illustrator 26.3.1, SVG Export Plug-In . SVG Version: 6.00 Build 0)  -->
<svg version="1.1" id="_лой_1" xmlns="http://www.w3.org/2000/svg" xmlns:xlink="http://www.w3.org/1999/xlink" x="0px" y="0px"
	 viewBox="0 0 39.8 40" style="enable-background:new 0 0 39.8 40;" xml:space="preserve">
<style type="text/css">
	.st0{fill:#003067;}
</style>
<path class="st0" d="M30,40H9.8C4.4,40,0,35.6,0,30.1V9.9C0,4.4,4.4,0,9.8,0H30c5.4,0,9.8,4.4,9.8,9.9v20.3C39.7,35.7,35.4,40,30,40
	z M9.8,3C6.1,3,3,6.1,3,9.9v20.2C3,33.8,6.1,37,9.8,37H30c3.7,0,6.7-3,6.8-6.8V9.9C36.9,6.1,33.7,3,30,3H9.8z"/>
<g>
	<path class="st0" d="M15.9,15.4h5.4v2.4l0.1-0.1c0.7-1.3,1.8-2,3.2-2.2c1.4-0.2,2.7-0.1,4.1,0.4c1.4,0.6,2.4,1.7,2.8,3.1
		c0.5,1.3,0.6,2.6,0.6,4.1v8.5h-5.4v-8c0-0.6-0.1-1.1-0.2-1.7c-0.2-1-0.9-1.6-2-1.7c-0.6,0-1.2,0-1.7,0.3c-0.9,0.4-1.2,1.1-1.3,2
		c-0.1,0.9-0.1,1.9-0.2,2.8v6.4h-5.4C15.9,31.6,15.9,15.4,15.9,15.4z"/>
	<path class="st0" d="M13.2,15.4v16.2H7.8V15.4H13.2z"/>
	<path class="st0" d="M10.5,7.2c1.5,0,2.6,1.2,2.6,2.7s-1.2,2.6-2.7,2.6s-2.6-1.2-2.6-2.7C7.8,8.5,9,7.2,10.5,7.2z"/>
</g>
</svg>
