<svg xmlns="http://www.w3.org/2000/svg" width="40" height="40" fill="none" viewBox="0 0 40 40">
	<g clip-path="url(#soc-2-insta-a)">
		<path fill="#003067" fill-rule="evenodd" d="M13.532 19.91c0-3.755 2.921-6.676 6.677-6.676 3.755 0 6.736 2.921 6.736 6.677a6.692 6.692 0 0 1-6.736 6.736c-3.756 0-6.677-2.98-6.677-6.736zm-3.875 0c0 5.723 4.65 10.254 10.253 10.254 5.604 0 10.254-4.65 10.254-10.253 0-5.604-4.59-10.313-10.194-10.313-5.603 0-10.313 4.65-10.313 10.313zM28.316 9.42a2.29 2.29 0 0 0 2.325 2.325 2.328 2.328 0 0 0 2.325-2.325c0-1.252-1.073-2.325-2.325-2.325-1.312 0-2.325.834-2.325 2.325zM11.982 36.244c-1.907 0-2.98-.357-3.756-.596-.774-.417-1.669-.834-2.324-1.49-.656-.596-1.014-1.43-1.431-2.325-.239-.596-.656-1.67-.656-3.755 0-2.087-.238-2.683-.238-8.167 0-5.425 0-6.08.238-8.167 0-1.908.417-2.921.656-3.756.417-.775.775-1.67 1.43-2.325.656-.596 1.431-1.013 2.325-1.43.775 0 1.908-.418 3.756-.418 2.087 0 2.742-.238 8.167-.238 5.186 0 6.08 0 8.167.238 1.908 0 2.98.417 3.756.656.834.417 1.669.835 2.324 1.43.656.656 1.073 1.49 1.431 2.326.239.655.656 1.669.656 3.755 0 2.087.238 2.742.238 8.167 0 5.246 0 6.08-.238 8.167 0 1.967-.417 2.98-.656 3.756-.358.834-.775 1.728-1.43 2.324-.656.656-1.431 1.073-2.325 1.49-.656.24-1.67.597-3.756.597s-2.742.238-8.167.238c-5.425-.298-6.08-.298-8.167-.477zM11.803.238c-2.086 0-3.577.418-4.769.775-1.192.418-2.563 1.312-3.636 2.325C2.384 4.411 1.49 5.663 1.073 6.855.715 8.107.298 9.598.298 11.685.06 13.83.06 14.664.06 19.91c0 5.305 0 6.08.238 8.166 0 2.087.417 3.637.775 4.83.417 1.251 1.311 2.443 2.325 3.576 1.073 1.133 2.325 1.967 3.636 2.325 1.252.656 2.683 1.073 4.77 1.073 2.086 0 2.741.119 8.166.119 5.485 0 6.08 0 8.167-.238 2.087 0 3.636-.358 4.829-.775 1.252-.418 2.503-1.312 3.576-2.325 1.073-1.014 1.968-2.325 2.325-3.577.418-1.312.835-2.742.835-4.829 0-2.086.238-2.742.238-8.167 0-5.424 0-6.08-.238-8.166 0-2.087-.417-3.577-.835-4.83-.357-1.191-1.252-2.443-2.325-3.576-1.013-1.132-2.325-1.907-3.576-2.325-1.312-.417-2.742-.775-4.829-.775C26.23 0 25.454 0 19.97 0c-5.246 0-6.08 0-8.167.238z" clip-rule="evenodd"/>
	</g>
	<defs>
		<clipPath id="soc-2-insta-a">
			<path fill="#fff" d="M0 0h40v40H0z"/>
		</clipPath>
	</defs>
</svg>
