<svg xmlns="http://www.w3.org/2000/svg" width="98" height="40" fill="none" viewBox="0 0 98 40">
	<g fill="#003067" fill-rule="evenodd" clip-path="url(#soc-3-yt-a)" clip-rule="evenodd">
		<path d="M9.685 6.45 7.096 16.614 4.442 6.45H.246c.81 2.34 1.694 4.843 2.503 7.335 1.283 3.474 2.017 6.29 2.34 8.145v10.485h3.949V21.931L13.72 6.45H9.685zm5.157 8.307c-.81.97-1.122 2.503-1.122 4.682v6.774c0 2.018.313 3.463 1.122 4.51.97 1.294 2.34 2.017 4.196 2.017 1.694 0 2.988-.648 3.948-2.018.81-.96 1.133-2.491 1.133-4.509V19.44c0-2.18-.324-3.636-1.133-4.682-.96-1.294-2.34-2.017-3.948-2.017-1.856.086-3.15.723-4.196 2.017zm2.34 12.18v-8.145c0-1.856.648-2.827 1.856-2.827.97 0 1.694.971 1.694 2.827v8.144c0 1.694-.648 2.665-1.694 2.665-1.208 0-1.856-1.047-1.856-2.665zM33.633 13.15v14.757c-.809.96-1.532 1.694-2.34 1.694-.324 0-.637-.324-.637-.81-.162-.161-.162-.647-.162-1.294V13.15h-3.473v15.318c0 1.294.161 2.34.323 2.826.324.96 1.133 1.532 2.341 1.532 1.133 0 2.503-.809 3.948-2.34v2.016h3.474V13.15h-3.474zM69.038 0c-7.174 0-14.434 0-21.607.81-2.988.323-5.491 2.491-6.138 5.64-.96 4.36-.96 9.116-.96 13.626 0 4.358 0 9.115.96 13.473.647 3.15 3.15 5.33 6.138 5.642C54.604 40 61.703 40 69.038 40c7.184 0 14.272 0 21.456-.81 3.14-.312 5.642-2.491 6.29-5.64.97-4.36.97-9.116.97-13.474 0-4.51 0-9.267-.97-13.625-.648-3.15-3.15-5.318-6.29-5.642C83.882 0 77.021 0 70.246 0h-1.208zm1.208 6.775V32.34h3.474v-1.856c1.133 1.532 2.34 2.18 3.463 2.18 1.531 0 2.34-.81 2.826-2.18.162-.809.323-2.179.323-3.786v-7.67c0-1.855-.161-3.139-.323-3.786-.486-1.532-1.295-2.18-2.826-2.18-1.122 0-2.492.648-3.463 2.018V6.775h-3.474zm3.474 22.017V16.936c.485-.485 1.133-.809 1.693-.809.971 0 1.532.971 1.532 2.665v8.144c0 1.856-.485 2.665-1.532 2.665-.485 0-1.208-.324-1.693-.81zM44.443 6.775v3.462h4.196v22.104h3.786V10.324h4.197v-3.55h-12.18zm39.762 8.144c-.809.971-1.132 2.503-1.132 4.682v6.613c0 2.017.485 3.462 1.132 4.509.96 1.294 2.503 2.017 4.197 2.017 1.855 0 3.3-.647 4.347-2.179.324-.475.647-1.284.809-2.006v-2.827h-3.463c0 1.532-.162 2.18-.162 2.341-.161.96-.647 1.532-1.531 1.532-1.133 0-1.856-.81-1.856-2.665v-3.462h7.012v-3.798c0-2.179-.324-3.624-.97-4.67-.961-1.133-2.493-1.856-4.186-1.856-1.856 0-3.237.636-4.197 1.77zm2.341 3.873c0-1.694.637-2.665 1.856-2.665 1.121 0 1.693.971 1.693 2.665v1.855h-3.549v-1.855zm-22.826-5.48v14.595c-.81 1.122-1.532 1.694-2.341 1.694-.324 0-.647-.324-.647-.81-.162-.161-.162-.485-.162-1.294V13.312h-3.463v15.156c0 1.295.162 2.341.324 2.826.323.96 1.122 1.532 2.33 1.532 1.219 0 2.502-.809 3.959-2.34v2.017h3.463V13.312H63.72z"/>
	</g>
	<defs>
		<clipPath id="soc-3-yt-a">
			<path fill="#fff" d="M0 0h98v40H0z"/>
		</clipPath>
	</defs>
</svg>
