<?xml version="1.0" encoding="utf-8"?>
<!-- Generator: Adobe Illustrator 26.3.1, SVG Export Plug-In . SVG Version: 6.00 Build 0)  -->
<svg version="1.1" id="Слой_1" xmlns="http://www.w3.org/2000/svg" xmlns:xlink="http://www.w3.org/1999/xlink" x="0px" y="0px"
	 viewBox="0 0 48 40" style="enable-background:new 0 0 48 40;" xml:space="preserve">
<style type="text/css">
	.st0{fill:#003067;}
</style>
<path class="st0" d="M39.2,6.6c-3.6-3.9-8.7-6.3-13.9-6.4c-0.2,0-0.5,0-0.7,0c-11.6,0-19.4,9.5-20,18.6C4.2,24.5,6.2,30,10.2,34.1
	c3.7,3.8,8.8,6,13.8,6c0.2,0,0.4,0,0.5,0c0.2,0,0.3,0,0.5,0c10.2,0,19.1-8.7,19.5-19.2C44.7,15.6,42.8,10.5,39.2,6.6z M41.5,20.1
	c0,4.6-1.8,8.8-5,12.1c-3.2,3.2-7.5,5-12,5h-0.1c-4.6,0-8.8-1.8-12-5s-5-7.5-4.9-12.1c0-9.4,7.7-17,17.1-17h0.1
	C34,3.1,41.6,10.8,41.5,20.1z"/>
<path class="st0" d="M21.6,25.3c0-1.6,0-3.1,0-4.7c0-0.4-0.1-0.6-0.5-0.5c-0.4,0-0.8,0-1.2,0c-0.3,0-0.4-0.1-0.4-0.4
	c0-1.1,0-2.2,0-3.3c0-0.3,0.1-0.5,0.4-0.5c0.4,0,0.8,0,1.2,0c0.3,0,0.4-0.1,0.4-0.4c0-0.8,0-1.5,0.1-2.3c0.3-2.2,1.8-3.5,4-3.6
	c1.1,0,2.1,0,3.2,0c0.3,0,0.4,0.1,0.4,0.4c0,0.9,0,1.8,0,2.8c0,0.3-0.1,0.4-0.4,0.4c-0.6,0-1.1,0-1.7,0c-0.8,0-1.1,0.3-1.2,1.1
	c0,0.4,0,0.8,0,1.1c0,0.3,0.1,0.4,0.4,0.4c0.8,0,1.6,0,2.4,0c0.4,0,0.5,0.1,0.4,0.5c-0.1,1.1-0.2,2.2-0.3,3.2c0,0.4-0.2,0.5-0.5,0.5
	c-0.7,0-1.4,0-2.1,0c-0.4,0-0.5,0.1-0.5,0.5c0,3.1,0,6.2,0,9.4c0,0.6,0,0.6-0.6,0.6c-1,0-2,0-3.1,0c-0.4,0-0.5-0.1-0.5-0.5
	C21.6,28.5,21.6,26.9,21.6,25.3z"/>
</svg>
