<?xml version="1.0" encoding="utf-8"?>
<!-- Generator: Adobe Illustrator 26.3.1, SVG Export Plug-In . SVG Version: 6.00 Build 0)  -->
<svg version="1.1" id="Слой_1" xmlns="http://www.w3.org/2000/svg" xmlns:xlink="http://www.w3.org/1999/xlink" x="0px" y="0px"
	 viewBox="0 0 48 40" style="enable-background:new 0 0 48 40;" xml:space="preserve">
<style type="text/css">
	.st0{fill:none;}
	.st1{fill:#003067;}
	.st2{fill:#FFFFFF;}
	.st3{enable-background:new    ;}
</style>
<path class="st0" d="M40.9,19.2H41c-0.1-3.3-1.2-6.4-3-8.9c-3.6,2.7-8.1,4.3-13,4.4v0h11.1C38.6,14.7,40.6,16.7,40.9,19.2z"/>
<path class="st0" d="M12.1,14.7H23v0c-4.8-0.1-9.3-1.8-12.9-4.4c-1.8,2.6-2.9,5.6-3.1,8.9h0.3C7.5,16.7,9.6,14.7,12.1,14.7z"/>
<path class="st0" d="M23,3.1c-4.6,0.3-8.8,2.4-11.7,5.7c3.3,2.4,7.3,3.8,11.7,4V3.1z"/>
<path class="st0" d="M11.9,32.1c3,3,6.9,4.7,11.1,5v-9.9c-4.4,0.2-8.6,1.8-11.8,4.1C11.4,31.6,11.7,31.9,11.9,32.1z"/>
<path class="st0" d="M25,3v9.9c4.5-0.2,8.5-1.8,11.8-4.1C33.9,5.4,29.7,3.3,25,3z"/>
<path class="st0" d="M7.4,21.1H7c0.1,3.2,1.2,6.1,2.9,8.7c3.5-2.7,8.2-4.4,13-4.6v0H12.1C9.7,25.2,7.8,23.4,7.4,21.1z"/>
<path class="st0" d="M25,27.1v10c4.1-0.2,8-2,11-5c0.3-0.3,0.6-0.6,0.9-1c0,0,0,0-0.1,0C33.6,28.7,29.5,27.3,25,27.1z"/>
<path class="st0" d="M36,25.2H25v0c4.8,0.2,9.4,1.7,13.1,4.3c1.7-2.5,2.7-5.4,2.9-8.4h-0.2C40.3,23.4,38.3,25.2,36,25.2z"/>
<path class="st1" d="M38.7,6.5C35.1,2.6,30,0.2,24.8,0.1c-0.2,0-0.5,0-0.7,0c-11.6,0-19.4,9.5-20,18.6C3.7,24.4,5.7,29.9,9.7,34
	c3.7,3.8,8.8,6,13.8,6c0.2,0,0.4,0,0.5,0c0.2,0,0.3,0,0.5,0c10.2,0,19.1-8.7,19.5-19.2C44.2,15.5,42.3,10.4,38.7,6.5z M25,3
	c4.7,0.2,8.9,2.4,11.8,5.7c-3.3,2.4-7.3,3.9-11.8,4.1V3z M23,3.1v9.7c-4.4-0.2-8.4-1.7-11.7-4C14.2,5.5,18.4,3.4,23,3.1z M23,37.1
	c-4.2-0.2-8.1-2-11.1-5c-0.2-0.2-0.5-0.5-0.7-0.8c3.2-2.4,7.4-3.9,11.8-4.1V37.1z M36,32.1c-3,3-6.9,4.7-11,5v-10
	c4.5,0.2,8.6,1.6,11.8,4c0,0,0,0,0.1,0C36.6,31.5,36.3,31.8,36,32.1z M38.1,29.5c-3.7-2.6-8.3-4.1-13.1-4.3v0h-2v0
	c-4.9,0.2-9.5,1.9-13,4.6c-1.8-2.5-2.8-5.5-2.9-8.7c0,0,0-0.6,0-1.6l0-0.3c0.2-3.3,1.3-6.4,3.1-8.9c3.6,2.7,8.1,4.3,12.9,4.4v0h2v0
	c4.9-0.1,9.4-1.7,13-4.4c1.8,2.6,2.9,5.6,3,8.9c0,0,0,0.5,0,1.2l0,0.7C40.8,24.2,39.8,27,38.1,29.5z"/>
<path class="st2" d="M23,14.7H12.1c-2.5,0-4.6,2-4.8,4.5H23V14.7z"/>
<path class="st2" d="M40.8,21.1H25v4.1h11C38.3,25.2,40.3,23.4,40.8,21.1z"/>
<path class="st2" d="M7.4,21.1c0.4,2.3,2.4,4.1,4.7,4.1H23v-4.1H7.4z"/>
<g class="st3">
	<path class="st1" d="M11.3,23.2l-1.6-6.5h1.6l0.5,2.7c0.1,0.8,0.3,1.6,0.4,2.3l0,0c0.1-0.7,0.3-1.5,0.4-2.3l0.6-2.6h1.6l0.5,2.7
		c0.1,0.8,0.3,1.4,0.4,2.2l0,0c0.1-0.7,0.3-1.5,0.4-2.2l0.5-2.6h1.5l-1.7,6.5h-1.6l-0.6-2.8c-0.1-0.7-0.2-1.3-0.3-2l0,0
		c-0.1,0.7-0.2,1.3-0.4,2L13,23.2H11.3z"/>
	<path class="st1" d="M21.3,23.2l-1.6-6.5h1.6l0.5,2.7c0.1,0.8,0.3,1.6,0.4,2.3l0,0c0.1-0.7,0.3-1.5,0.4-2.3l0.6-2.6h1.6l0.5,2.7
		c0.2,0.8,0.3,1.4,0.4,2.2l0,0c0.1-0.7,0.3-1.5,0.4-2.2l0.5-2.6h1.5l-1.7,6.5h-1.6l-0.6-2.8c-0.1-0.7-0.2-1.3-0.3-2l0,0
		c-0.1,0.7-0.2,1.3-0.4,2L23,23.2H21.3z"/>
	<path class="st1" d="M31.3,23.2l-1.6-6.5h1.6l0.5,2.7c0.1,0.8,0.3,1.6,0.4,2.3l0,0c0.1-0.7,0.3-1.5,0.4-2.3l0.6-2.6h1.6l0.5,2.7
		c0.1,0.8,0.3,1.4,0.4,2.2l0,0c0.1-0.7,0.3-1.5,0.4-2.2l0.5-2.6h1.5l-1.7,6.5h-1.6l-0.6-2.8c-0.1-0.7-0.2-1.3-0.3-2l0,0
		c-0.1,0.7-0.2,1.3-0.4,2l-0.6,2.8h-1.6C31.3,23.4,31.3,23.2,31.3,23.2z"/>
</g>
</svg>
