<svg xmlns="http://www.w3.org/2000/svg" width="48" height="40" fill="none" viewBox="0 0 48 40">
	<g clip-path="url(#soc-5-telegram-a)">
		<path fill="#003067" d="M46.56 1.12C46 .4 45.12 0 44.16 0c-.56 0-1.12.08-1.68.32L2.4 15.6c-2.16.8-2.4 2-2.4 2.64 0 .64.4 1.84 2.56 2.56l8.32 2.4L15.36 36c.64 1.76 2 2.8 3.6 2.8 1.04 0 2-.4 2.88-1.2l5.12-4.72 7.44 6 .08.08c.8.64 1.76.96 2.64.96 1.76 0 3.12-1.28 3.52-3.28L47.2 4.4c.24-1.36 0-2.48-.64-3.28zM13.68 22.8l16-8.16-10 10.56c-.16.16-.24.4-.32.64l-1.92 7.76-3.76-10.8zm6.24 12.8c-.08.08-.16.08-.16.16l1.76-7.2 3.28 2.64-4.88 4.4zM44.48 3.84l-6.56 32.4c-.08.32-.24 1.04-.8 1.04-.24 0-.56-.16-.88-.4l-8.4-6.8L22.8 26l14.4-15.36c.48-.48.48-1.28.08-1.76-.4-.56-1.12-.72-1.76-.4L11.84 20.64l-8.4-2.4 40-15.28c.32-.16.56-.16.72-.16.08 0 .24 0 .32.08 0 .08.08.4 0 .96z"/>
	</g>
	<defs>
		<clipPath id="soc-5-telegram-a">
			<path fill="#fff" d="M0 0h47.2v40H0z"/>
		</clipPath>
	</defs>
</svg>
