<svg width="40" height="40" viewBox="0 0 40 40" fill="none" xmlns="http://www.w3.org/2000/svg">
<path d="M29.8 38.1H9.4C4.8 38.1 1 34.3 1 29.7V9.4C1 4.8 4.8 1 9.4 1H29.8C34.4 1 38.2 4.8 38.2 9.4V29.8C38.1 34.4 34.4 38.1 29.8 38.1Z" stroke="#003067" stroke-width="2" stroke-miterlimit="10"/>
<path d="M15.6001 14.6C17.5001 14.6 19.4001 14.6 21.3001 14.6C21.3001 15.4 21.3001 16.2 21.3001 17.1C21.4001 17 21.4001 17 21.4001 17C22.1001 15.6 23.3001 14.9 24.8001 14.7C26.3001 14.5 27.7001 14.6 29.1001 15.1C30.6001 15.7 31.6001 16.9 32.1001 18.4C32.6001 19.8 32.7001 21.2 32.7001 22.7C32.7001 25.6 32.7001 28.6 32.7001 31.5C32.7001 31.6 32.7001 31.6 32.7001 31.7C30.8001 31.7 28.9001 31.7 27.0001 31.7C27.0001 31.6 27.0001 31.5 27.0001 31.4C27.0001 28.7 27.0001 25.9 27.0001 23.2C27.0001 22.6 26.9001 22 26.8001 21.4C26.6001 20.3 25.8001 19.7 24.7001 19.6C24.1001 19.6 23.4001 19.6 22.9001 19.9C22.0001 20.3 21.6001 21.1 21.5001 22C21.4001 23 21.4001 24 21.3001 25C21.3001 27.2 21.3001 29.4 21.3001 31.6C21.3001 31.7 21.3001 31.7 21.3001 31.8C19.4001 31.8 17.5001 31.8 15.6001 31.8C15.6001 26 15.6001 20.3 15.6001 14.6Z" fill="#003067"/>
<path d="M12.7 14.6C12.7 20.3 12.7 26 12.7 31.7C10.8 31.7 8.9 31.7 7 31.7C7 26 7 20.3 7 14.6C8.9 14.6 10.8 14.6 12.7 14.6Z" fill="#003067"/>
<path d="M9.9 6C11.5 6 12.7 7.3 12.7 8.9C12.7 10.5 11.4 11.7 9.8 11.7C8.2 11.7 7 10.4 7 8.8C7 7.3 8.3 6 9.9 6Z" fill="#003067"/>
</svg>
