<svg width="44" height="34" viewBox="0 0 44 34" fill="none" xmlns="http://www.w3.org/2000/svg">
<path d="M43.6 7.5C43.6 6.8 43.4 5.9 43.1 5.1C41.9 1.9 39.1 0 35.6 0C29.4 0 23.3 0 17.1 0H8.50002C7.10002 0 5.90002 0.3 4.80002 0.9C2.00002 2.4 0.600024 4.7 0.600024 7.5C0.500024 13.3 0.500024 19.2 0.600024 24.9V26.5C0.600024 28.3 1.30002 29.9 2.70002 31.4C4.30002 33.2 6.30002 34 8.70002 34C12 34 15.3 34 18.6 34H22.1H25.8C27 34 28.3 34 29.5 34C31.5 34 33.5 34 35.5 34C37.1 34 38.4 33.7 39.5 33.1C42.2 31.5 43.7 29.3 43.7 26.5C43.8 20.4 43.8 14.1 43.7 8.1L43.6 7.5ZM6.30002 3.3C6.40002 3 6.70002 2.7 7.10002 2.6C7.60002 2.5 8.30002 2.5 8.80002 2.5C17.7 2.5 26.6 2.5 35.6 2.5C36.3 2.5 37.2 2.5 37.9 2.9C38.4 3.3 38.5 3.9 38.1 4.4L33.3 9.2C30.5 12 27.6 14.8 24.8 17.7C24.1 18.4 23.2 18.8 22.3 18.8C21.4 18.8 20.5 18.4 19.8 17.7C16.6 14.5 13.4 11.3 10.2 8.1C9.10002 7 8.00002 5.9 6.90002 4.8C6.30002 4.4 6.00002 3.9 6.30002 3.3ZM41.2 25.6C41.2 26.1 41.2 26.5 41.1 27C40.6 29.6 38.5 31.5 35.8 31.6H35.6H28.4C26 31.6 23.6 31.6 21.2 31.6C17.1 31.6 12.9 31.6 8.80002 31.6C6.50002 31.6 4.80002 30.5 3.80002 28.6C3.40002 27.8 3.20002 26.8 3.10002 25.9C3.10002 20.9 3.10002 15.8 3.10002 10.9C3.10002 10.4 3.10002 10 3.10002 9.5C3.10002 8.4 2.80002 6.5 4.30002 6.3C4.70002 6.3 5.00002 6.5 5.30002 6.8C5.60002 7.2 5.90002 7.5 6.20002 7.9L10.5 12.2C13 14.7 15.4 17.1 17.9 19.6C19.4 21.1 21.3 21.7 23.5 21.3C24.5 21.1 25.3 20.7 26 20C28.4 17.6 30.8 15.2 33.2 12.8C33.5 12.5 33.9 12.1 34.2 11.8C34.9 11.1 35.7 10.3 36.4 9.6C37.1 8.9 37.7 8.3 38.4 7.6C38.7 7.3 39.1 6.8 39.5 6.6C40.1 6.3 41 6.7 41.1 7.4V7.7C41.1 8 41.2 8.2 41.2 8.5C41.2 14.2 41.2 19.9 41.2 25.6Z" fill="white"/>
</svg>
