<svg xmlns="http://www.w3.org/2000/svg" width="80" height="80" fill="none" viewBox="0 0 80 80">
	<path fill="#fff" d="M40.082 3.942c-19.877 0-35.975 16.1-35.975 35.812 0 19.876 16.099 35.975 35.975 35.975 19.877 0 36.14-16.099 36.14-35.975 0-19.713-16.263-35.811-36.14-35.811zm0 70.473c-19.055 0-34.825-15.442-34.825-34.661 0-19.056 15.606-34.662 34.825-34.662 19.22 0 34.826 15.606 34.826 34.662 0 19.055-15.606 34.66-34.826 34.66z"/>
	<path fill="#fff" d="M43.532 38.932c1.15 1.15 1.643 2.464 1.643 4.271 0 1.971-.658 3.45-1.479 4.436-.821.821-2.3 1.807-4.764 1.807a8.942 8.942 0 0 1-4.435-1.15c-1.478-.657-2.464-1.643-3.285-2.629L29.24 50.76c1.15.985 2.629 1.971 3.779 2.628 2.3 1.15 4.928 1.15 6.57 1.15 3.286 0 6.078-.657 8.542-3.121 2.136-1.971 3.122-4.6 3.122-7.885 0-1.807-.329-4.928-2.793-7.392-1.643-1.807-4.6-2.957-7.885-2.957-.821 0-1.479 0-2.136.164l1.15-4.764h10.35v-5.256H35.646l-3.614 16.098c2.3-1.478 4.435-1.971 6.57-1.971 1.48 0 3.286.164 4.929 1.478zM30.719 65.544c0 .822-.329 1.15-.329 1.15-.328.329-.821.329-1.15.164v1.807c.329.164.493.165.822.165.657 0 1.478 0 1.97-.657.494-.493.822-1.15.822-2.465v-2.3h1.807v5.257h2.3v-7.063h-6.242v3.942zM42.218 61.273c-.657 0-1.807.164-2.629 1.15-.821.657-1.15 1.807-1.15 2.793 0 1.15.493 2.135 1.15 2.792.822.822 1.807.986 2.793.986.821 0 1.643-.164 2.3-.493.328-.329.985-.821 1.314-1.807l-2.136-.329c-.164.493-.492.658-.492.658-.329.164-.657.328-.986.328-.329 0-.821-.164-1.15-.493-.328-.328-.493-.821-.493-1.314h5.421v-.164c0-.986-.164-1.971-.985-2.957-.986-.986-2.136-1.15-2.957-1.15zm-1.315 2.957c0-.329.165-.657.33-.821.328-.165.656-.493 1.313-.493.329 0 .822.164.986.493.328.328.493.821.493.821h-3.121zM46.817 63.409h1.972v5.42h2.3v-5.42h1.97v-1.807h-6.242v1.807zM16.099 21.848l-1.15-.821-2.464 3.45 5.585 3.942.821-1.314-4.27-3.121 1.478-2.136zM20.041 16.263l.493.657c-1.15-.164-1.807.164-2.3.493-1.314 1.314-1.478 3.285-.164 4.928 1.314 1.314 3.285 1.971 4.928.493.329-.329.986-.822.986-1.972l.328.493 1.314-.985-4.435-5.093-1.15.986zm2.136 2.628c.985.986.821 2.136 0 2.793-.822.657-2.136.493-2.793-.493-.821-.821-.821-2.136 0-2.793.657-.657 1.971-.657 2.793.493zM27.762 18.398c.986.493 1.971.165 2.3 0 1.478-.657 2.464-2.464 1.478-4.6-.821-1.97-2.792-2.628-4.435-1.806-.657.164-1.15.657-1.478 1.478l-.165-.657-1.478.657 4.107 9.692 1.478-.657-1.807-4.107zm-1.15-2.3c-.493-1.314 0-2.463.986-2.792.986-.493 1.971.164 2.464 1.314.493.986.164 2.136-.821 2.628-.822.493-1.972.165-2.629-1.15zM36.797 16.756c.493-.165 1.314-.329 1.807-1.15l.164.657 1.479-.164-.657-6.736-1.643.165.164.821c-.821-.821-1.643-.821-2.135-.821-1.807.164-3.121 1.807-2.957 3.942.328 1.807 1.642 3.45 3.778 3.286zm-.493-5.75c.986-.164 1.971.493 2.136 1.971.164 1.315-.657 2.136-1.643 2.3-1.15.165-1.971-.821-2.136-1.971-.164-1.15.493-2.136 1.643-2.3zM43.696 13.634l2.628.493-.328 2.793 1.478.164 1.15-6.57-1.643-.33-.328 2.465-2.793-.493.493-2.464-1.643-.164-1.15 6.57 1.643.33.493-2.794zM51.253 18.727l2.135-4.928 1.807.821.493-1.314-5.092-2.136-.493 1.315 1.807.82-2.136 4.765 1.479.657zM56.51 18.398l2.299-2.957-1.15-.985-4.435 5.75 6.406-.658-2.464 3.121 1.314.822 4.436-5.75-6.407.657zM66.037 22.177c-.493-.493-.986-.986-1.643-1.15-.821-.165-1.314.164-1.642.492-.493.33-.658.658-.822 1.315 0 .328 0 .657.329 1.15l-3.45-.165 1.15 1.479h3.121l.164.328-1.97 1.479.82 1.314 5.421-4.107-1.478-2.135zm-1.807 2.628-.657-.657c-.164-.329-.329-.657-.329-.822 0-.164 0-.492.329-.657.164-.328.493-.328.657-.164.329.164.493.329.657.657l.493.657-1.15.986z"/>
	<path fill="#fff" d="M39.918 80C17.906 80 0 62.094 0 39.918 0 17.906 17.905 0 39.918 0 62.094 0 80 17.905 80 39.918 80 62.094 62.094 80 39.918 80zm0-77.7C19.22 2.3 2.3 19.22 2.3 39.918 2.3 60.78 19.22 77.7 39.918 77.7 60.78 77.7 77.7 60.78 77.7 39.918 77.7 19.22 60.78 2.3 39.918 2.3z"/>
</svg>
