<svg xmlns="http://www.w3.org/2000/svg" width="52" height="48" fill="none" viewBox="0 0 52 48">
	<path fill="#003067" d="m17.192 31.102-.29.945c-.38 1.251-.75 2.46-1.103 3.748-.19.697-.433 1.367-.723 2.017a16.12 16.12 0 0 1-1.024 1.868v.006c-.724 1.124-1.415 2.259-2.107 3.394-.638 1.045-1.277 2.095-1.905 3.083a3.774 3.774 0 0 1-1.014 1.082 3.208 3.208 0 0 1-1.779.607 3.138 3.138 0 0 1-1.8-.502 3.637 3.637 0 0 1-1.029-.987c-.47-.66-.644-1.346-.607-2.032.032-.66.264-1.315.602-1.938l.1-.179c.734-1.346 1.478-2.697 2.333-3.98a21.801 21.801 0 0 0 2.143-4.133c.57-1.447 1.003-2.946 1.352-4.487.59-2.597 1.261-5.168 1.926-7.744.27-1.035.539-2.07.85-3.289a2.002 2.002 0 0 0-.433.243c-.274.206-.48.502-.622.94-.417 1.299-.924 2.555-1.431 3.811-.18.449-.359.898-.554 1.394-.317.807-.824 1.367-1.468 1.652-.644.285-1.399.28-2.212-.032v.006l-.047-.022a2.222 2.222 0 0 1-1.31-1.409c-.2-.607-.173-1.336.112-2.08l.031-.074.76-1.858a369.427 369.427 0 0 0 1.927-4.777 6.862 6.862 0 0 1 .935-1.684 5.8 5.8 0 0 1 1.42-1.33c.496-.327 1.04-.697 1.588-1.066 1.22-.824 2.434-1.647 3.711-2.407v.005a6.223 6.223 0 0 1 3.146-.903c1.156-.016 2.307.28 3.41.803.386.18.74.475 1.046.813.364.4.67.876.907 1.32.687 1.271 1.32 2.58 1.954 3.884.411.855.823 1.71 1.277 2.597v.006c.08.153.185.3.311.438.132.148.285.28.444.39.855.581 1.731 1.14 2.608 1.7.522.338 1.05.676 1.52.982.422.28.765.612.997 1.013.238.417.349.903.29 1.463a2.748 2.748 0 0 1-.142.638c-.184.534-.522.961-.96 1.24-.433.28-.961.413-1.526.354a3.073 3.073 0 0 1-.623-.137 3.589 3.589 0 0 1-.48-.216 5.577 5.577 0 0 1-.428-.243c-.28-.169-.533-.333-.781-.49-.412-.265-.823-.534-1.23-.75-1.04-.555-2.011-1.188-2.882-1.938a12.203 12.203 0 0 1-2.112-2.36l-.005.032c-.116.702-.222 1.367-.443 2.006-.328.93-.375 1.742-.174 2.497.2.765.66 1.489 1.346 2.217 1.388 1.489 2.554 3.162 3.721 4.825l.428.612c.242.349.453.734.617 1.14.17.412.296.85.37 1.272.39 2.186.733 4.382 1.076 6.572.122.787.243 1.573.391 2.481v.006c.164 1.04.005 1.879-.47 2.518-.47.633-1.24 1.04-2.301 1.214-.919.147-1.753-.048-2.397-.528-.644-.47-1.092-1.214-1.261-2.154-.143-.813-.301-1.731-.47-2.692-.158-.897-.311-1.8-.47-2.697-.026-.18-.079-.465-.132-.755-.132-.755-.264-1.505-.375-2.297a2.706 2.706 0 0 0-.264-.87 3.321 3.321 0 0 0-.554-.76 140.943 140.943 0 0 1-3.056-3.31c-.185-.206-.375-.412-.655-.724zm-1.14.687c.143-.449.28-.908.512-1.69l.1-.321.534.01.126.143c.19.21.692.76 1.183 1.303a153.766 153.766 0 0 0 3.04 3.29c.29.305.528.627.702.97.175.349.296.729.354 1.151.1.734.237 1.5.37 2.265.042.216.079.433.131.76.159.897.312 1.794.47 2.697.143.834.296 1.71.47 2.687.127.707.449 1.256.908 1.594.46.338 1.056.475 1.731.364.824-.137 1.404-.422 1.732-.865.327-.438.427-1.061.306-1.853-.122-.75-.259-1.62-.396-2.486-.338-2.191-.68-4.376-1.072-6.556a5.225 5.225 0 0 0-.834-2.053c-.1-.138-.158-.223-.432-.618-1.146-1.642-2.297-3.29-3.637-4.725-.787-.834-1.32-1.679-1.563-2.597-.243-.929-.19-1.91.195-3.02.201-.564.301-1.187.407-1.847.053-.343.11-.697.174-1.019l.169-.87.591.66c.064.068.143.147.211.216.127.132.217.227.301.359.597.94 1.32 1.747 2.127 2.444.819.707 1.737 1.303 2.719 1.831.46.243.876.512 1.293.781.259.17.523.338.76.48h.006c.121.075.248.154.375.217.12.064.242.122.358.164.143.047.286.08.423.095.359.037.691-.048.96-.216.27-.175.48-.444.602-.787.042-.132.074-.28.09-.438a1.478 1.478 0 0 0-.174-.93c-.159-.274-.407-.511-.713-.712h-.005c-.533-.354-1.024-.665-1.51-.976-.881-.565-1.758-1.125-2.629-1.716v-.005a3.188 3.188 0 0 1-1.045-1.156c-.422-.834-.855-1.726-1.288-2.618-.623-1.294-1.25-2.587-1.932-3.854a6.02 6.02 0 0 0-.786-1.14c-.238-.264-.497-.48-.766-.607-.987-.465-2.006-.734-3.02-.718a5.351 5.351 0 0 0-2.702.776c-1.245.739-2.454 1.563-3.668 2.38-.513.35-1.024.692-1.595 1.072-.48.312-.876.692-1.203 1.125a5.928 5.928 0 0 0-.813 1.472c-.597 1.515-1.267 3.146-1.932 4.783l-.76 1.858-.021.058c-.211.549-.238 1.072-.1 1.489.126.39.4.696.797.86l.031.01v.006c.58.222 1.109.232 1.536.042.428-.19.771-.58.998-1.167.174-.432.364-.918.56-1.398.501-1.246 1.002-2.487 1.409-3.748.2-.628.517-1.061.934-1.378.407-.306.892-.486 1.457-.618l.681-.163-.143.686c-.015.053-.036.164-.058.27-.026.136-.047.258-.084.4a552.675 552.675 0 0 1-.876 3.4c-.665 2.565-1.33 5.13-1.922 7.717a31.916 31.916 0 0 1-1.388 4.614A22.596 22.596 0 0 1 7.58 38.73c-.834 1.246-1.563 2.587-2.291 3.912l-.095.174c-.28.517-.47 1.045-.496 1.562-.027.491.1.987.443 1.468.227.322.491.57.781.755.407.258.856.38 1.299.364.449-.01.892-.159 1.293-.444.29-.205.554-.48.776-.834.665-1.05 1.283-2.058 1.9-3.072.697-1.145 1.394-2.29 2.112-3.41.364-.57.686-1.15.96-1.763.275-.602.502-1.224.682-1.879.322-1.204.707-2.465 1.108-3.774z"/>
	<path fill="#092E6C" d="M25.269 4.931a4.805 4.805 0 0 1-4.83 4.761l-.069-.005a4.771 4.771 0 0 1-3.341-1.446 4.845 4.845 0 0 1-1.362-3.384v-.074a4.801 4.801 0 0 1 1.457-3.362A4.816 4.816 0 0 1 20.539.069h.005a4.745 4.745 0 0 1 3.363 1.447 4.843 4.843 0 0 1 1.362 3.41v.005zm-2.053 2.745a3.926 3.926 0 0 0 1.166-2.75h-.005.005V4.92a3.939 3.939 0 0 0-1.114-2.787A3.848 3.848 0 0 0 20.54.956h-.005a3.92 3.92 0 0 0-3.98 3.848v.053a3.93 3.93 0 0 0 1.114 2.76A3.862 3.862 0 0 0 20.386 8.8l.058.005a3.937 3.937 0 0 0 2.771-1.13z"/>
	<path fill="#999" d="M3.743 26.837a3.498 3.498 0 0 1-.57-.063 4.227 4.227 0 0 1-.581-.169l-.048-.021a2.222 2.222 0 0 1-1.309-1.41c-.2-.612-.174-1.335.111-2.08l.032-.073.765-1.874a326.428 326.428 0 0 0 1.922-4.761 6.997 6.997 0 0 1 .934-1.69c.385-.506.855-.95 1.42-1.325.496-.327 1.05-.702 1.6-1.071 1.203-.813 2.406-1.631 3.7-2.402.3-.18.607-.332.918-.454a5.7 5.7 0 0 1 .956-.295l.19.865c-.27.058-.544.143-.819.254a5.543 5.543 0 0 0-.791.396h-.006c-1.214.723-2.433 1.546-3.652 2.37-.518.348-1.03.702-1.605 1.076-.48.317-.876.697-1.204 1.125-.338.438-.601.929-.813 1.473a398.477 398.477 0 0 1-1.926 4.772L2.2 23.353l-.02.058c-.212.55-.238 1.067-.101 1.49.127.39.401.696.802.86l.027.01a2.61 2.61 0 0 0 .844.18l-.01.886zM3.368 47.862c-.528 0-1.05-.127-1.536-.396a3.573 3.573 0 0 1-1.22-1.098c-.47-.66-.644-1.346-.607-2.027.032-.665.264-1.314.602-1.942l.08-.143c.738-1.356 1.488-2.724 2.354-4.011a21.992 21.992 0 0 0 2.143-4.139 31.239 31.239 0 0 0 1.351-4.487v-.005c.047-.195.09-.396.106-.454l.865.2c-.058.238-.079.344-.1.444l-.005.01a32.194 32.194 0 0 1-1.389 4.62 22.857 22.857 0 0 1-2.238 4.301c-.844 1.262-1.578 2.608-2.307 3.944l-.079.142c-.28.517-.47 1.045-.496 1.563-.026.496.1.987.443 1.467.264.375.581.655.919.84.354.19.728.284 1.109.284l.005.887zM13.571 8.563a4.8 4.8 0 0 1-1.705-3.78 4.786 4.786 0 0 1 1.452-3.362A4.82 4.82 0 0 1 16.733.064l-.005.887a3.91 3.91 0 0 0-3.975 3.848c-.016.607.111 1.182.349 1.7a3.859 3.859 0 0 0 1.045 1.383l-.576.68z"/>
	<path fill="#003067" d="M34.395 38.84H33v-1.628h3.286v9.7h-1.89V38.84zM41.46 43.673c.174-.204 1.309-1.497 1.658-2.021.261-.393.567-.989.567-1.556 0-.873-.625-1.47-1.44-1.47-.988 0-1.512.787-1.54 1.615h-1.95C38.844 38.264 40.24 37 42.159 37c2.253 0 3.417 1.54 3.417 3.082 0 1.497-1.003 2.575-1.76 3.387l-1.672 1.817h3.504v1.629H38.61l2.85-3.244"/>
</svg>
