<svg xmlns="http://www.w3.org/2000/svg" width="80" height="81" fill="none" viewBox="0 0 80 81">
	<path fill="#fff" d="M55.9 8c0 4.1-3.3 7.4-7.4 7.4-4.2 0-7.5-3.4-7.4-7.6 0-4.1 3.4-7.2 7.5-7.2S56 3.9 55.9 8zM40.3 28.8c-1.5.9-2.5 2.1-2.8 3.8-.8 3.9-1.6 7.8-2.4 11.6-.2.8-.5 1.5-1.2 2.1-.2.2-.4.4-.5.7-2.4 8.5-4.9 17-7.3 25.5-.1.3 0 .7.2.9.8 1.2.9 2.5.2 3.8-.7 1.2-1.7 1.9-3.1 1.8-1.5-.1-2.5-.8-3.1-2.3-.1-.3-.4-.5-.7-.6-1.9-.6-3.8-1.2-5.7-1.7-1.7-.5-2.5-1.8-2-3.6 1.4-5 2.8-9.9 4.3-14.9.5-1.9 1.8-2.6 3.6-2 3 .9 5.9 1.8 9 2.7.9-3.2 1.9-6.5 2.8-9.9-.3 0-.6-.1-.9-.1-1.5-.3-2.4-1.4-2.2-3l1.2-7.2c.5-2.6.9-5.2 1.4-7.8.3-1.6 1-2.8 2.2-3.9 2.5-2.2 4.8-4.7 7.6-6.6 3.3-2.3 9.7-2.3 13.1-.9 1.6.6 2.5 1.5 3.1 2.5 3.5 7.4 7 14.8 10.4 22.3.8 1.6.4 3-1.1 4l-.9.6c-1.5.9-2.8.6-3.7-1-.8-1.5-1.4-3-2.2-4.4-1.1-2.3-2.2-4.5-3.4-6.8 0 .2-.1.5-.1.7v9.4c0 .4.1.8.3 1.2 1.1 2.7 2.2 5.3 3.2 8 1.2 3.4 1.4 7 1.9 10.6l1.2 9.6c.5 4.1-3.3 6.3-6.1 5.6-1.7-.5-2.6-1.8-2.8-3.5-.5-4.1-.8-8.3-1.3-12.4-.3-2-.8-4.1-1.4-6-.8-2.5-1.9-4.9-3-7.4-.2.7-.5 1.5-.7 2.2-2.3 7.3-4.6 14.7-6.9 22.1-1 3.4-4.1 4.5-7 2.9-1.8-1-2.6-3-1.9-5.1 1.4-4.4 2.7-8.8 4.1-13.2 1.4-4.4 2.7-8.8 4.1-13.2.1-.3.1-.6.1-.9V29.6c.5-.3.4-.5.4-.8zM25.6 75.5c0-1.1-.9-2-2-2s-2.1 1.1-2 2.1c0 1.1 1 2 2 2 1.1 0 2-1 2-2.1z"/>
</svg>
