<svg xmlns="http://www.w3.org/2000/svg" width="73" height="80" fill="none" viewBox="0 0 73 80">
	<path fill="#fff" d="M26.81 26.932c-4.05-.137-7.308-1.865-9.772-4.8-4.626-5.512-4.052-13.795 1.314-18.676 4.79-4.334 11.744-4.635 17-.713 7.747 5.786 6.871 17.744-1.615 22.543-2.053 1.152-4.27 1.673-6.926 1.646zm16.563 6.884c-3.066 1.206-5.995 2.303-8.924 3.483-5.12 2.056-7.42 6.554-6.625 11.957 1.067 7.405 3.23 14.453 6.57 21.09-.356.494-.74.302-1.095.302-9.527.027-19.053.027-28.58 0-2.929 0-4.736-1.865-4.353-4.717.794-6.171 1.424-12.37 2.601-18.458 1.56-8.063 6.488-13.657 13.797-17.195.74-.357 1.314-.247 2.026.137 5.667 3.099 11.388 3.017 17.027-.028.767-.411 1.342-.411 2.026-.082a25.927 25.927 0 0 1 5.53 3.51zm7.774 3.537a977.629 977.629 0 0 0-14.892 5.705c-1.97.768-3.175 2.797-2.929 4.717.876 7.268 2.847 14.234 6.297 20.679C42.36 73.555 45.59 78.244 51.558 80h2.628c4.079-1.042 6.926-3.73 9.253-7.076 5.174-7.432 7.83-15.824 9.061-24.71.028-.192.055-.411.055-.603v-.604c-.11-1.974-1.26-3.29-3.422-4.114-4.654-1.81-9.362-3.538-14.016-5.375-1.341-.521-2.656-.686-3.97-.165zm10.403 15.77a1.007 1.007 0 0 1 1.45 0 1.028 1.028 0 0 1 0 1.426l-9.361 9.38a.993.993 0 0 1-.712.301c-.274 0-.52-.11-.74-.301l-9.334-9.38a.98.98 0 0 1 0-1.426.975.975 0 0 1 1.423 0l8.65 8.64 8.624-8.64z"/>
</svg>
