<svg xmlns="http://www.w3.org/2000/svg" width="71" height="48" fill="none" viewBox="0 0 71 48">
	<g clip-path="url(#icon-char-1-a)">
		<path fill="#003067" d="M18.413 23.447h-7.079a.476.476 0 0 1-.442-.442v-.332L23.058.22c.11-.11.332-.221.442-.221h11.502c.332 0 .553.332.553.553 0 .11 0 .221-.11.332l-9.843 14.82h9.069c.331 0 .553.221.553.443 0 .22-.11.331-.221.442L7.794 46.562a.535.535 0 0 1-.774 0c-.221-.11-.221-.442-.11-.553l11.502-22.562zm-6.194-.995h6.968c.11 0 .221 0 .221.11.221 0 .332.221.332.443 0 .11 0 .22-.11.22L9.564 43.024l24-26.323h-8.959s-.11 0-.221-.11c-.221-.11-.332-.442-.11-.664 3.207-4.977 8.184-12.387 9.843-14.82L23.832.996 12.219 22.451z"/>
		<path fill="#999" d="M34.45 7.3c2.1 1.77 3.87 3.981 5.198 6.525 1.216 2.433 1.99 5.198 2.212 8.074.442 5.75-1.549 11.06-4.977 15.041-3.54 4.092-8.517 6.747-14.268 7.19h-2.433c-.885-.111-1.77-.111-2.544-.333l.222-.995 2.322.332c.774 0 1.549 0 2.433-.11 5.42-.333 10.176-2.877 13.494-6.748 3.317-3.76 5.087-8.847 4.755-14.267-.221-2.765-.995-5.42-2.101-7.742-1.217-2.322-2.986-4.424-4.977-6.083l.663-.884zM7.242 38.71c-1.99-1.77-3.65-3.871-4.756-6.304C1.38 30.083.606 27.539.385 24.885c-.332-5.42 1.438-10.507 4.534-14.489 3.208-3.981 7.853-6.746 13.162-7.631l.11 1.106c-5.087.774-9.4 3.429-12.497 7.189-2.987 3.76-4.646 8.516-4.203 13.714.11 2.544.885 4.977 1.88 7.19 1.106 2.322 2.654 4.313 4.535 6.082l-.664.664z"/>
		<path fill="#003067" fill-rule="evenodd" d="M41.638 44.35c.221-.221 1.549-1.659 1.88-2.212.332-.442.664-1.106.664-1.77 0-.995-.774-1.658-1.659-1.658-1.106 0-1.659.884-1.659 1.88h-2.212c.11-2.212 1.66-3.65 3.76-3.65 2.544 0 3.871 1.66 3.871 3.429 0 1.659-1.105 2.875-1.99 3.76l-1.88 2.101h3.981V48h-7.963l3.207-3.65zM54.689 44.24h1.327v1.77H54.69V48h-1.99v-1.99h-5.31v-.996l5.42-7.853h1.88v7.079zm-1.99 0v-4.093l-2.766 4.093h2.765zM62.431 37.161l2.876 7.3 2.986-7.3h2.322L65.97 48h-1.216l-4.646-10.839h2.323z" clip-rule="evenodd"/>
	</g>
	<defs>
		<clipPath id="icon-char-1-a">
			<path fill="#fff" d="M0 0h71v48H0z"/>
		</clipPath>
	</defs>
</svg>
