<svg xmlns="http://www.w3.org/2000/svg" width="65" height="48" fill="none" viewBox="0 0 65 48">
	<path fill="#003067" d="m32.1 31.1-.3.9c-.4 1.3-.7 2.5-1.1 3.7-.2.7-.4 1.4-.7 2-.3.6-.6 1.3-1 1.9-.7 1.1-1.4 2.3-2.1 3.4-.6 1-1.3 2.1-1.9 3.1-.3.4-.6.8-1 1.1-.5.4-1.2.6-1.8.6-.6 0-1.2-.1-1.8-.5-.4-.2-.7-.6-1-1-.5-.7-.6-1.3-.6-2s.3-1.3.6-1.9l.1-.2c.7-1.3 1.5-2.7 2.3-4 .9-1.3 1.6-2.7 2.1-4.1.6-1.4 1-2.9 1.4-4.5.6-2.6 1.3-5.2 1.9-7.7.3-1 .5-2.1.8-3.3-.2.1-.3.1-.4.2-.3.2-.5.5-.6.9-.4 1.3-.9 2.6-1.4 3.8L25 25c-.3.8-.8 1.4-1.5 1.7-.6.3-1.4.3-2.2 0-.7-.3-1.1-.8-1.3-1.4-.2-.6-.2-1.3.1-2.1v-.1l.8-1.9c.6-1.5 1.3-3.1 1.9-4.8.2-.6.5-1.2.9-1.7s.9-1 1.4-1.3c.5-.3 1-.7 1.6-1.1 1.2-.8 2.4-1.6 3.7-2.4 1-.6 2.1-.9 3.1-.9 1.2 0 2.3.3 3.4.8.4.2.7.5 1 .8.4.4.7.9.9 1.3.7 1.3 1.3 2.6 2 3.9.4.9.8 1.7 1.3 2.6.1.2.2.3.3.4l.4.4c.9.6 1.7 1.1 2.6 1.7.5.3 1.1.7 1.5 1 .4.3.8.6 1 1 .2.4.3.9.3 1.5 0 .2-.1.4-.1.6-.2.5-.5 1-1 1.2-.4.3-1 .4-1.5.4-.2 0-.4-.1-.6-.1-.2-.1-.3-.1-.5-.2-.1-.1-.3-.2-.4-.2-.3-.2-.5-.3-.8-.5-.4-.3-.8-.5-1.2-.7-1-.6-2-1.2-2.9-1.9-.8-.7-1.5-1.5-2.1-2.4-.1.7-.2 1.4-.4 2-.3.9-.4 1.7-.2 2.5s.7 1.5 1.3 2.2c1.4 1.5 2.6 3.2 3.7 4.8l.4.6c.2.3.5.7.6 1.1.2.4.3.8.4 1.3.4 2.2.7 4.4 1.1 6.6.1.8.2 1.6.4 2.5.2 1 0 1.9-.5 2.5-.5.6-1.2 1-2.3 1.2-.9.1-1.8 0-2.4-.5-.6-.5-1.1-1.2-1.3-2.2-.1-.8-.3-1.7-.5-2.7-.2-.9-.3-1.8-.5-2.7 0-.2-.1-.5-.1-.8-.1-.8-.3-1.5-.4-2.3 0-.3-.1-.6-.3-.9-.1-.3-.3-.5-.6-.8-1-1-2-2.2-3.1-3.3.2-.1 0-.3-.3-.6zm-1.1.7c.1-.4.3-.9.5-1.7l.1-.3h.5l.1.1c.2.2.7.8 1.2 1.3l3 3.3c.3.3.5.6.7 1 .2.3.3.7.4 1.2.1.7.2 1.5.4 2.3 0 .2.1.4.1.8.2.9.3 1.8.5 2.7.1.8.3 1.7.5 2.7.1.7.4 1.3.9 1.6.5.3 1.1.5 1.7.4.8-.1 1.4-.4 1.7-.9.3-.4.4-1.1.3-1.9-.1-.7-.3-1.6-.4-2.5-.3-2.2-.7-4.4-1.1-6.6-.1-.4-.2-.7-.3-1.1-.1-.3-.3-.7-.5-1-.1-.1-.2-.2-.4-.6-1.1-1.6-2.3-3.3-3.6-4.7-.8-.8-1.3-1.7-1.6-2.6-.2-.9-.2-1.9.2-3 .2-.6.3-1.2.4-1.8.1-.3.1-.7.2-1l.2-.9.6.7.2.2c.1.1.2.2.3.4.6.9 1.3 1.7 2.1 2.4s1.7 1.3 2.7 1.8c.5.2.9.5 1.3.8.3.2.5.3.8.5.1.1.2.2.4.2.1.1.2.1.4.2.1 0 .3.1.4.1.4 0 .7 0 1-.2.3-.2.5-.4.6-.8 0-.1.1-.3.1-.4 0-.4 0-.7-.2-.9-.2-.3-.4-.5-.7-.7-.5-.4-1-.7-1.5-1-.9-.6-1.8-1.1-2.6-1.7-.2-.1-.4-.3-.6-.5-.2-.2-.3-.4-.4-.6-.4-.8-.9-1.7-1.3-2.6-.6-1.3-1.3-2.6-1.9-3.9-.2-.4-.5-.8-.8-1.1-.2-.3-.5-.5-.8-.6-1-.5-2-.7-3-.7-.9 0-1.8.3-2.7.8-1.2.7-2.5 1.6-3.7 2.4-.5.3-1 .7-1.6 1.1-.5.3-.9.7-1.2 1.1-.3.4-.6.9-.8 1.5-.6 1.5-1.3 3.1-1.9 4.8-.1.3-.2.5-.8 1.9v.1c-.2.5-.2 1.1-.1 1.5.1.4.4.7.8.9.6.2 1.1.2 1.5 0 .4-.2.8-.6 1-1.2.2-.4.4-.9.6-1.4.5-1.2 1-2.5 1.4-3.7.2-.6.5-1.1.9-1.4.4-.3.9-.5 1.5-.6l.7-.2-.3.2c0 .1 0 .2-.1.3 0 .1 0 .3-.1.4-.3 1-.6 2.2-.9 3.4-.7 2.6-1.3 5.1-1.9 7.7-.4 1.6-.8 3.1-1.4 4.6-.6 1.5-1.3 2.9-2.2 4.3-.8 1.2-1.6 2.6-2.3 3.9l-.1.2c-.3.5-.5 1-.5 1.6 0 .5.1 1 .4 1.5.2.3.5.6.8.8.4.3.9.4 1.3.4s.9-.2 1.3-.4c.3-.2.6-.5.8-.8.7-1.1 1.3-2.1 1.9-3.1.7-1.1 1.4-2.3 2.1-3.4.4-.6.7-1.2 1-1.8.3-.6.5-1.2.7-1.9.3-1.3.7-2.6 1.1-3.9z"/>
	<path fill="#092E6C" d="M40.2 4.9c0 1.3-.6 2.5-1.4 3.4-.9.9-2.1 1.4-3.4 1.4h-.1c-1.3 0-2.5-.6-3.3-1.4-.8-.9-1.4-2.1-1.4-3.4v-.1c0-1.3.6-2.5 1.5-3.4C33 .6 34.2 0 35.5 0c1.3 0 2.5.6 3.4 1.4.8 1 1.3 2.2 1.3 3.5zm-2.1 2.8c.8-.7 1.2-1.7 1.2-2.8 0-1.1-.4-2.1-1.1-2.8-.7-.7-1.7-1.1-2.7-1.1-1.1 0-2.1.4-2.8 1.1-.7.7-1.2 1.7-1.2 2.7v.1c0 1.1.4 2 1.1 2.8.7.7 1.7 1.2 2.7 1.2h.1c1.1-.1 2-.5 2.7-1.2z"/>
	<path fill="#999" d="m56.9 37.8-5-1.9v.1l.1-.1v.1l.1-.1s-.1-.1-.1-.3c-.1-.2-.1-.4-.1-.6V17.3c0-.2 0-.4.1-.4l-.1-.1v.2h.1l-.1-.1v.2-.2l-.1.2h.1v-.2l-.1.2 5 1.9.3-.8-5-1.8-.5-.4c-.2 0-.3.1-.5.2-.3.3-.4.7-.4 1.1v17.9c0 .3.1.7.2.9.1.3.3.5.6.7l5 1.8.4-.8z"/>
	<path fill="#999" d="M56.7 13.1h-.5v33c0 .6.5 1 1 1h3.9c.5 0 1-.5 1-1v-33c0-.6-.5-1-1-1h-3.9c-.5 0-1 .5-1 1h.9l.1-.1h3.9l.1.1v33l-.1.1h-3.9l-.1-.1v-33h-.4zM7.3 38.6l5-1.8c.4-.2.5-.4.6-.7.1-.3.2-.6.2-.9V17.3c0-.3 0-.6-.2-.8l-.2-.3c-.1-.1-.3-.2-.5-.2H12l-5 1.8.3.8 5-1.9-.1-.2v.2h.1l-.1-.2v.2-.2l-.1.2h.1v-.2l-.1.2s.1.2.1.5v17.9c0 .2-.1.5-.1.6l-.1.2v.1-.1.1-.1l-5 1.9.3.8z"/>
	<path fill="#999" d="M6.6 12.5V12H2.7c-.5 0-1 .5-1 1v33c0 .6.5 1 1 1h3.9c.5 0 1-.5 1-1V13c0-.6-.5-1-1-1v1l.1.1v33l-.1.1H2.7l-.1-.1v-33l.1-.1h3.9v-.5z"/>
</svg>
