<svg xmlns="http://www.w3.org/2000/svg" width="49" height="48" fill="none" viewBox="0 0 49 48">
	<g clip-path="url(#icon-char-5.v3-a)">
		<path fill="#999" d="M8.884 9.668H6.316v-.972h2.568v.972zM8.884 18.066H6.316v-.902h2.568v.902zM8.884 26.533H6.316v-.971h2.568v.971zM8.884 34.862H6.316v-.972h2.568v.972z"/>
		<path fill="#003067" d="M4.72 1.062c-1.042 0-2.013.416-2.638 1.11-.694.625-1.11 1.596-1.11 2.638v35.05c0 .763.208 1.457.555 2.012.347.624.902 1.04 1.527 1.388l.277.07v2.22c0 .417.14.764.417.972.277.278.625.486.972.486.416 0 .763-.208 1.04-.486.209-.208.417-.555.417-.972v-2.22l.278-.07c.624-.347 1.11-.764 1.527-1.388.347-.555.555-1.25.555-2.013v-.763h-4.72v-.903h4.72v-7.495h-4.72v-.972h4.72v-7.357h-4.72v-.972h4.72V14.04h-4.72v-.971h4.72V5.712h-4.72V4.74h4.72a4.046 4.046 0 0 0-1.18-2.568c-.694-.694-1.596-1.11-2.637-1.11zm-3.332.416A4.72 4.72 0 0 1 4.72.09c1.318 0 2.429.555 3.331 1.388A4.72 4.72 0 0 1 9.439 4.81v35.05c0 .97-.208 1.804-.694 2.498-.416.694-.972 1.18-1.666 1.596v1.596c0 .625-.208 1.25-.694 1.666a2.299 2.299 0 0 1-1.665.694c-.625 0-1.25-.277-1.666-.694a2.423 2.423 0 0 1-.694-1.666v-1.596c-.694-.416-1.25-.902-1.666-1.596A4.794 4.794 0 0 1 0 39.859V4.81a4.72 4.72 0 0 1 1.388-3.33z"/>
		<path fill="#999" d="M11.174 4.74h6.177v.972h-6.177V4.74zM11.174 38.193h6.177v.903h-6.177v-.903z"/>
		<path fill="#003067" fill-rule="evenodd" d="M25.264 5.365h2.36v-2.36h1.804v2.36h2.43V7.1h-2.43v2.36h-1.805V7.03h-2.36V5.365zM39.422 2.936h-3.331l-.347 1.596c.139 0 .347-.07.624-.07 1.042 0 2.013.348 2.569 1.042.763.832.832 1.804.832 2.36 0 1.04-.277 1.873-1.04 2.637-.764.763-1.666 1.04-2.707 1.04-.625 0-1.458 0-2.221-.346-.348-.208-.833-.486-1.25-.902l.694-1.666c.278.347.556.624 1.041.902.486.347.972.416 1.458.416.833 0 1.319-.416 1.457-.555.417-.486.694-.971.694-1.596 0-.625-.208-1.041-.555-1.458-.486-.485-1.04-.485-1.596-.485-.694 0-1.458.208-2.221.694l1.25-5.345h4.65v1.736zM41.227 6.267c0-3.4 1.874-5.205 3.887-5.205C47.057 1.062 49 2.866 49 6.267c0 3.4-1.943 5.205-3.886 5.205-2.013.07-3.887-1.735-3.887-5.205zm1.943 0c0 2.637 1.041 3.61 1.944 3.61.833 0 1.874-.973 1.874-3.61 0-2.568-1.041-3.54-1.874-3.54-.902 0-1.944.972-1.944 3.54zM34.078 37.222h2.36v-2.36h1.804v2.36h2.36v1.735h-2.36v2.36h-1.804v-2.36h-2.36v-1.735zM44.489 34.862H43.1v-1.735h3.4V43.19H44.49v-8.329z" clip-rule="evenodd"/>
	</g>
	<defs>
		<clipPath id="icon-char-5.v3-a">
			<path fill="#fff" d="M0 0h49v48H0z"/>
		</clipPath>
	</defs>
</svg>
