<svg width="82" height="82" viewBox="0 0 82 82" fill="none" xmlns="http://www.w3.org/2000/svg">
<path d="M41.1303 4.02148C20.7611 4.02148 4.18457 20.5326 4.18457 40.8038C4.18457 61.0749 20.7611 77.6188 41.1303 77.6188C61.4996 77.6188 78.0761 61.1076 78.0761 40.8365C78.0761 20.5653 61.4996 4.02148 41.1303 4.02148ZM41.1303 76.3437C21.4804 76.3437 5.45969 60.421 5.45969 40.8365C5.45969 21.2519 21.4477 5.2966 41.1303 5.2966C60.7803 5.2966 76.801 21.2193 76.801 40.8038C76.801 60.3883 60.7803 76.3437 41.1303 76.3437Z" fill="white"/>
<path d="M44.5636 39.9538C45.8714 41.1309 46.3946 42.5041 46.3946 44.2696C46.3946 46.2967 45.6426 47.8988 44.7271 48.847C43.9751 49.6316 42.5038 50.7433 39.9209 50.7433C38.4169 50.7433 36.9129 50.4163 35.3435 49.5663C33.9376 48.8143 32.9241 47.8661 32.074 46.7545L30.0469 52.0184C31.1912 53.0974 32.5971 54.0782 33.8722 54.6994C36.2917 55.8765 38.9727 56.0072 40.6729 56.0072C44.0405 56.0072 46.8196 55.288 49.3045 52.8031C51.4623 50.6452 52.5086 47.9969 52.5086 44.6293C52.5086 42.7329 52.2143 39.6596 49.7295 37.1093C47.9312 35.2784 44.956 33.9706 41.621 33.9706C40.8037 33.9706 40.1171 34.0687 39.4958 34.1667L40.6402 29.2297H51.1354V23.9004H36.5859L32.826 40.3789C35.18 38.973 37.4033 38.3517 39.6266 38.3517C41.1633 38.3517 42.9289 38.5479 44.5636 39.9538Z" fill="white"/>
<path d="M41 82C18.4075 82 0 63.5925 0 41C0 18.4075 18.4075 0 41 0C63.5925 0 82 18.4075 82 41C82 63.5925 63.5925 82 41 82ZM41 2.28868C19.6499 2.28868 2.28868 19.6499 2.28868 41C2.28868 62.3501 19.6499 79.7113 41 79.7113C62.3501 79.7113 79.7113 62.3501 79.7113 41C79.7113 19.6499 62.3501 2.28868 41 2.28868Z" fill="white"/>
<path d="M19.7803 27.9874L19.2245 28.7721L11.6719 27.5296L12.9797 25.7968L17.1974 26.6796L15.1376 22.8542L15.6607 22.1349L19.9111 22.985L17.8513 19.1923L19.1591 17.4595L22.5267 24.3255L21.9709 25.0775L17.6551 24.1293L19.7803 27.9874Z" fill="white"/>
<path d="M25.9273 13.4052L27.5948 12.3916L31.0932 18.2114L29.4257 19.1922L28.968 18.4402C28.8699 19.65 28.1506 20.2058 27.7256 20.4674C25.8946 21.579 23.8675 20.9251 22.8213 19.1922C21.775 17.4594 22.1347 15.3996 23.9002 14.3206C24.3579 14.0591 25.2734 13.6013 26.3524 14.1245L25.9273 13.4052ZM24.5541 18.1787C25.1099 19.0942 26.2216 19.4211 27.2024 18.8326C28.1833 18.2441 28.4122 17.1324 27.8563 16.1843C27.3005 15.2361 26.1889 14.9418 25.2407 15.5304C24.2925 16.1189 23.9983 17.2305 24.5541 18.1787Z" fill="white"/>
<path d="M30.4062 11.4108L32.2699 10.8877L32.5314 11.8686C32.6622 11.2147 32.9892 10.855 33.12 10.7242C33.3488 10.4627 33.7085 10.2665 34.1335 10.1357C34.4605 10.0376 34.722 10.0376 34.9836 10.0703L35.2125 11.8686C34.9182 11.7705 34.6566 11.7705 34.2643 11.8686C33.9047 11.9667 33.4142 12.1955 33.1854 12.7514C32.9565 13.2745 33.0873 13.863 33.2181 14.3207L34.1008 17.4595L32.2372 17.9826L30.4062 11.4108Z" fill="white"/>
<path d="M36.8477 9.87411L38.7767 9.74333L38.8421 10.7569C39.1036 10.1684 39.496 9.84141 39.6268 9.74333C39.921 9.54715 40.2807 9.38368 40.7384 9.35098C41.0654 9.31829 41.3596 9.38368 41.5885 9.44907L41.4577 11.2473C41.1961 11.0838 40.9346 11.0184 40.5422 11.0511C40.1826 11.0838 39.6268 11.1819 39.2998 11.6724C38.9729 12.1628 38.9729 12.7186 39.0056 13.209L39.2344 16.4786L37.3054 16.6094L36.8477 9.87411Z" fill="white"/>
<path d="M48.716 10.5606L50.6123 10.9203L49.3372 17.5901L47.4409 17.2305L47.6044 16.3804C46.7216 17.2305 45.8061 17.1651 45.3157 17.067C43.2232 16.6746 42.1769 14.811 42.5366 12.8493C42.9289 10.8876 44.5637 9.57975 46.5908 9.9394C47.1139 10.0375 48.0948 10.3317 48.5525 11.4434L48.716 10.5606ZM44.4983 13.2089C44.3021 14.2879 44.9233 15.2687 46.0023 15.4649C47.0812 15.6611 48.0294 15.0072 48.2583 13.9282C48.4544 12.8493 47.8332 11.9011 46.7543 11.6723C45.6753 11.4434 44.7272 12.13 44.4983 13.2089Z" fill="white"/>
<path d="M53.6523 12.0649L55.3525 13.0131L54.9274 13.7651C55.4833 13.5035 56.366 13.3074 57.3142 13.8305C57.8373 14.1247 58.5239 14.7133 58.6874 15.5633C58.8182 16.3153 58.5566 16.9366 58.2297 17.4924L56.1699 21.2523L54.4697 20.3042L56.2679 17.0673C56.4641 16.7404 56.7257 16.2173 56.5949 15.7268C56.4968 15.3018 56.1372 15.0729 55.9737 14.9748C55.5159 14.7133 55.0909 14.6806 54.6332 14.9094C54.1754 15.1383 53.9139 15.5633 53.7177 15.923L52.0175 18.9637L50.3174 18.0155L53.6523 12.0649Z" fill="white"/>
<path d="M61.957 19.6825L58.4913 23.5079L57.0527 22.2001L60.5184 18.3747L59.9626 17.8516L61.0743 16.6419L61.6301 17.165L63.1995 15.4648L64.6381 16.7727L63.0687 18.4728L64.0495 19.3883L62.9379 20.598L61.957 19.6825Z" fill="white"/>
<path d="M62.2518 26.3197L65.2924 20.4019L66.5349 22.2982L64.4751 26.1889L68.7582 25.6658L69.9679 27.4968L58.2302 28.543L57.0205 26.7121L62.2518 26.3197Z" fill="white"/>
<path d="M38.4829 67.4504C38.254 67.9735 37.4693 69.6737 34.9518 69.6737C33.8075 69.6737 32.9247 69.3467 32.2054 68.6601C31.4207 67.9081 31.0938 66.9927 31.0938 65.881C31.0938 64.4751 31.6823 63.5923 32.1727 63.0692C33.0228 62.2518 34.0036 62.0557 34.8537 62.0557C36.2923 62.0557 37.1424 62.6442 37.6328 63.2327C38.3848 64.1482 38.4829 65.2598 38.4829 66.0445V66.208H33.1209C33.1209 66.633 33.2516 67.0907 33.4805 67.4177C33.7094 67.712 34.1344 68.1043 34.9191 68.1043C35.6711 68.1043 36.2596 67.7447 36.5866 67.1561L38.4829 67.4504ZM36.652 64.9329C36.4885 63.952 35.7038 63.4943 34.9518 63.4943C34.1998 63.4943 33.4478 63.9847 33.2516 64.9329H36.652Z" fill="white"/>
<path d="M45.3154 62.2845H47.3425V69.4448H45.3154V68.5293C44.5961 69.5756 43.6152 69.6737 43.1248 69.6737C40.9342 69.6737 39.4629 67.9408 39.4629 65.8483C39.4629 63.7231 40.9015 62.0557 43.0267 62.0557C43.5825 62.0557 44.6288 62.1538 45.3154 63.2V62.2845ZM41.5554 65.881C41.5554 67.0254 42.3728 67.9081 43.5498 67.9081C44.7268 67.9081 45.5442 67.0254 45.5442 65.881C45.5442 64.7367 44.7268 63.8539 43.5498 63.8539C42.3728 63.8539 41.5554 64.7367 41.5554 65.881Z" fill="white"/>
<path d="M48.8471 62.2845H50.8743V63.3635C51.2012 62.7423 51.6263 62.448 51.757 62.3826C52.084 62.1864 52.4763 62.0557 52.9341 62.0557C53.2937 62.0557 53.5553 62.1538 53.7841 62.2191L53.5226 64.1155C53.261 63.9193 52.9995 63.8539 52.5744 63.8539C52.1821 63.8539 51.6263 63.952 51.2339 64.4424C50.8416 64.9329 50.8416 65.5214 50.8416 66.0118V69.4448H48.8145V62.2845H48.8471Z" fill="white"/>
<path d="M58.0995 63.9847C57.609 63.527 57.1513 63.4943 56.9224 63.4943C56.432 63.4943 56.1377 63.7231 56.1377 64.0828C56.1377 64.279 56.2358 64.5405 56.7916 64.7367L57.2821 64.9002C57.8379 65.0964 58.688 65.3579 59.113 65.9137C59.3419 66.208 59.4727 66.633 59.4727 67.0908C59.4727 67.7447 59.2438 68.3659 58.688 68.9217C58.0995 69.4448 57.4129 69.6737 56.5301 69.6737C55.0588 69.6737 54.2087 68.9544 53.751 68.4967L54.7972 67.2869C55.1896 67.7447 55.7781 68.1043 56.3666 68.1043C56.9224 68.1043 57.3475 67.8101 57.3475 67.3196C57.3475 66.8619 56.9878 66.6984 56.7263 66.6003L56.2685 66.4369C55.7454 66.2407 55.1569 66.0118 54.7318 65.5868C54.4049 65.2271 54.176 64.8021 54.176 64.2136C54.176 63.527 54.503 62.9385 54.928 62.6115C55.4838 62.1538 56.2031 62.0884 56.7916 62.0884C57.3148 62.0884 58.1649 62.1538 59.0803 62.8404L58.0995 63.9847Z" fill="white"/>
<path d="M24.4889 70.5893H26.7122L31.0934 62.2847H28.8047L26.8103 66.3716L24.6197 62.2847H22.2656L25.6659 68.366L24.4889 70.5893Z" fill="white"/>
</svg>
