<svg xmlns="http://www.w3.org/2000/svg" width="42" height="48" fill="none" viewBox="0 0 42 48">
	<g fill-rule="evenodd" clip-path="url(#icon-char-6.v3-a)" clip-rule="evenodd">
		<path fill="#999" d="M16.965 6.13c-2.636.494-4.447 1.317-6.588 2.47-1.483.824-2.636 1.812-3.789 2.965-.164.164-.329.33-.658.494-.495.494-.495.494-.989 1.153-.164.165-.33.494-.494.659C1.977 16.835.33 21.282 0 25.235c-.33 5.436 1.482 10.377 3.953 13.836 1.318 1.647 2.965 3.458 4.612 4.611 1.647 1.153 3.623 2.306 5.93 3.13 5.27 1.482 10.376 1.153 15.152-.988 1.483-.66 2.8-1.483 4.118-2.471 3.953-2.965 6.917-7.741 7.741-12.518.659-2.8.659-5.435 0-8.235-.824-3.953-2.47-6.918-4.776-9.718l-1.153-1.153c-.165-.164-.165-.329-.33-.329l-.823-.824c-.33-.164-.66-.164-.824.165-.165.494.494.824.988 1.318l1.153 1.153.494.494c1.483 1.976 2.636 3.788 3.624 6.423 2.141 5.93 1.153 13.012-2.306 17.953-1.482 1.977-2.47 2.965-4.447 4.612-4.612 3.788-11.365 5.106-17.623 3.294C6.094 43.518 0 34.13.988 24.576c.33-2.635.989-4.776 2.142-6.917.823-1.647 1.482-2.47 2.47-3.788.824-.989 2.635-2.636 3.788-3.46.824-.658 1.647-1.152 2.8-1.646 1.812-.989 3.13-1.318 5.106-1.647.66-.165.66-1.153-.33-.989z"/>
		<path fill="#003067" d="M25.036.2h-.165c-.165.494-3.459 9.388-3.624 9.718-.658 1.976-1.317 3.294-.329 5.435 1.812 3.294 6.753 3.294 8.4-.165.988-2.141.33-3.623-.494-5.27-.988-2.8-2.306-5.765-3.294-8.565-.165-.33-.33-.988-.494-1.153zm0 2.635c-.165.494-2.636 7.083-2.965 7.741-.494 1.483-1.153 2.636-.165 4.283 1.483 2.635 5.27 2.47 6.588-.165.66-1.647.165-2.8-.494-4.282l-2.964-7.577zM13.836 31.659c1.317 0 2.306.165 3.294-.494.823-.33 1.317-.989 1.482-2.142.33-2.14-1.153-3.952-3.13-3.952H11.86v10.376h1.977V31.659zm5.435 1.812c.659.164 4.118.164 5.106.164v1.812h1.976v-1.812h1.153v-1.647h-1.153v-6.917h-1.812c-.164.329-1.152 1.647-1.482 2.14L19.6 32.154c-.33.659-.33.494-.33 1.318zm11.035-6.589v8.565h2.141V25.071h-3.623v1.811h1.482zM7.412 35.447H9.39V25.071H7.412v10.376zm6.424-5.6c.494.165 1.482.165 1.976-.165.988-.494.988-2.14 0-2.635-.494-.165-1.482-.33-1.976-.165v2.965zm7.905 2.141h2.636c0-.823.165-3.459 0-3.953-.165.33-.494.66-.659.988l-1.977 2.965z"/>
	</g>
	<defs>
		<clipPath id="icon-char-6.v3-a">
			<path fill="#fff" d="M0 0h42v48H0z"/>
		</clipPath>
	</defs>
</svg>
