<svg xmlns="http://www.w3.org/2000/svg" width="65" height="48" fill="none" viewBox="0 0 65 48">
	<path fill="#003067" d="M19.4 37.6v-.8H21v6.8h-1.6v-.7c-.5.6-1.2.9-2 .9-1 0-1.8-.4-2.4-1.1-.6-.7-.9-1.6-.9-2.5 0-1.1.3-1.9 1-2.6.6-.6 1.4-1 2.3-1 .9 0 1.5.3 2 1zm-1.8.4c-.6 0-1 .2-1.4.6-.3.4-.5.9-.5 1.5s.2 1.1.5 1.5c.3.4.8.6 1.4.6.5 0 1-.2 1.4-.6.4-.4.6-.9.6-1.6 0-.7-.2-1.2-.6-1.6-.4-.2-.9-.4-1.4-.4zM23 33.8h1.6v9.8H23v-9.8zM31.5 37.6v-.8h1.6v6.8h-1.6v-.7c-.5.6-1.2.9-2 .9-1 0-1.8-.4-2.4-1.1-.6-.7-.9-1.6-.9-2.5 0-1.1.3-1.9 1-2.6.7-.7 1.4-1 2.3-1 .9 0 1.5.3 2 1zm-1.8.4c-.6 0-1 .2-1.4.6-.4.4-.5.9-.5 1.5s.2 1.1.5 1.5c.3.4.8.6 1.4.6.5 0 1-.2 1.4-.6.4-.4.6-.9.6-1.6 0-.7-.2-1.2-.6-1.6-.4-.2-.8-.4-1.4-.4zM35.1 43.6v-6.8h1.6v.6c.2-.2.4-.4.7-.6.3-.2.6-.2 1-.2.5 0 .9.1 1.2.3l-.6 1.4c-.3-.2-.5-.2-.8-.2-.4 0-.7.1-1 .4-.3.3-.4.8-.4 1.6v3.5h-1.7zM40.5 43.6v-6.8H42v.6c.4-.5 1-.8 1.7-.8.8 0 1.4.3 1.8 1 .5-.7 1.1-1 2-1 .9 0 1.5.4 1.9 1.1.2.4.4 1 .4 1.7v4.2h-1.6v-3.7c0-.6 0-1-.1-1.2-.2-.4-.5-.6-.9-.6s-.7.2-.9.5c-.2.3-.3.8-.3 1.5v3.5h-1.6v-3.7c0-.6 0-1-.1-1.2-.3-.5-.6-.7-1-.7s-.7.2-.9.5c-.2.3-.3.8-.3 1.5v3.5h-1.6v.1z"/>
	<path stroke="#003067" stroke-miterlimit="10" d="M39.9 30H24.3v-7.7c0-4.8 3.9-8.3 8.7-7.9 3.7.3 6.9 3.6 7 7.4.1 2.7 0 5.3 0 8-.1 0-.1.1-.1.2z"/>
	<path fill="#003067" d="M31.8 17.9c-2.2.1-4.1 2-4.2 4.3 0 .5.3.8.7.8.4 0 .7-.3.8-.8.1-1.6 1.2-2.7 2.8-2.8.1 0 .3 0 .4-.1.3-.2.5-.5.4-.8-.1-.5-.3-.7-.9-.6zM32.7 10.5v1.6c0 .5-.3.7-.7.7-.4 0-.7-.3-.7-.7V9c0-.5.3-.8.7-.8.4 0 .7.3.7.8.1.4 0 1 0 1.5zM44.3 15.6c-.1.1-.2.3-.4.5-.9.6-1.9 1.1-2.8 1.6-.4.2-.8.1-.9-.2-.2-.3-.1-.7.3-.9.9-.5 1.8-1.1 2.8-1.6.4-.4 1-.1 1 .6zM27.8 13.4c0 .4-.2.6-.5.7-.3.1-.6 0-.8-.3-.4-.6-.7-1.2-1-1.8-.2-.3-.4-.7-.6-1-.2-.4-.1-.8.2-1 .3-.2.7-.1.9.3.5.9 1.1 1.8 1.6 2.8.1.1.2.2.2.3zM38.6 9.9c.6 0 1 .5.7.9-.5 1-1.1 2-1.7 2.9-.2.3-.6.4-.9.2-.3-.2-.4-.6-.2-.9.5-1 1.1-1.9 1.7-2.9.1 0 .3-.1.4-.2zM20.7 14.8c.1 0 .2 0 .3.1.9.5 1.9 1.1 2.8 1.6.3.2.4.4.3.7-.1.2-.3.4-.5.5-.1.1-.4 0-.5 0-1-.5-1.9-1.1-2.9-1.7-.3-.2-.4-.5-.3-.8.2-.2.4-.4.8-.4z"/>
	<path fill="#999" d="m57.1 37.8-5-1.9v.1l.1-.1v.1l.1-.1s-.1-.1-.1-.3c-.1-.2-.1-.4-.1-.6V17.3c0-.2 0-.4.1-.4l-.1-.1v.2h.1l-.1-.1v.2-.2l-.1.2h.1v-.2l-.1.2 5 1.9.3-.8-5-1.8-.5-.4c-.2 0-.3.1-.5.2-.3.3-.4.7-.4 1.1v17.9c0 .3.1.7.2.9.1.3.3.5.6.7l5 1.8.4-.8z"/>
	<path fill="#999" d="M56.9 13.1h-.5v33c0 .6.5 1 1 1h3.9c.5 0 1-.5 1-1v-33c0-.6-.5-1-1-1h-3.9c-.5 0-1 .5-1 1h.9l.1-.1h3.9l.1.1v33l-.1.1h-3.9l-.1-.1v-33h-.4zM7.5 38.6l5-1.8c.4-.2.5-.4.6-.7.1-.3.2-.6.2-.9V17.3c0-.3 0-.6-.2-.8l-.2-.3c-.1-.1-.3-.2-.5-.2h-.2l-5 1.8.3.8 5-1.9-.1-.2v.2h.1l-.1-.2v.2-.2l-.1.2h.1v-.2l-.1.2s.1.2.1.5v17.9c0 .2-.1.5-.1.6l-.1.2v.1-.1.1-.1l-5 1.9.3.8z"/>
	<path fill="#999" d="M6.8 12.5V12H2.9c-.5 0-1 .5-1 1v33c0 .6.5 1 1 1h3.9c.5 0 1-.5 1-1V13c0-.6-.5-1-1-1v1l.1.1v33l-.1.1H2.9l-.1-.1v-33l.1-.1h3.9v-.5z"/>
</svg>
