<svg xmlns="http://www.w3.org/2000/svg" width="38" height="38" fill="none" viewBox="0 0 38 38">
	<path fill="#F0F0F0" fill-rule="evenodd" d="M.5 37.728c.228.457 10.506-2.055 10.734-2.055.457-.229 1.599-1.599 2.056-2.056l8.222-8.222c2.74-2.74 5.253-5.481 8.222-8.222 1.599-1.599 7.08-6.852 7.994-8.222v-.914c-.913-1.599-2.284-2.74-3.654-4.111-1.37-1.142-2.513-2.512-4.111-3.654h-.686c-2.055 1.598-2.284 2.284-4.339 4.11L2.555 26.995C2.327 27.222.043 37.044.5 37.728zm4.34-10.734 6.166 6.166 10.05-9.82c1.141-1.37 9.363-9.365 9.82-10.05L24.71 7.123 7.352 24.482c-.686.685-2.056 1.827-2.513 2.512zm21.24-21.24 6.167 6.394c.685-.913 3.197-3.197 3.654-3.883l-6.167-5.938c-.685.229-2.969 2.74-3.654 3.426zM2.784 35.215l6.395-.913c.228-.457.228-.229-.229-.686L4.154 29.05l-.685 2.97c-.229.913-.457 2.055-.685 3.197z" clip-rule="evenodd"/>
</svg>
