<?xml version="1.0" encoding="UTF-8"?>
<!DOCTYPE svg PUBLIC "-//W3C//DTD SVG 1.1//EN" "http://www.w3.org/Graphics/SVG/1.1/DTD/svg11.dtd">
<svg xmlns="http://www.w3.org/2000/svg" xmlns:xlink="http://www.w3.org/1999/xlink">
<symbol id="icon-adv-1" viewBox="0 0 60 80">
	<path fill="#fff" d="M26.449 75.633c4.653-3.429 7.592-7.592 7.837-13.225.245-9.306-5.388-16.163-14.694-17.388-1.47-.245-1.715-.734-1.715-1.959V22.98c0-2.94 1.47-4.409 3.674-4.409 2.449 0 3.918 1.715 3.918 4.409v16.653c0 .734-.49 1.714.735 1.714.98 0 .735-1.224.735-1.714V9.265c.49-1.959 2.204-3.183 4.163-3.183 1.96.245 3.184 1.714 3.184 3.673.245 5.388 0 10.776 0 16.163 0 4.164 0 8.572.245 12.735 0 .98-.735 2.694.734 2.694 1.47 0 .735-1.714.735-2.694.245-11.265 0-22.775.245-34.04 0-2.94 1.714-4.409 4.163-4.164 1.96.245 3.184 1.96 3.184 4.408v34.776c0 .734-.245 1.714.734 1.714 1.225 0 .735-.98.735-1.714 0-8.817 0-17.633.245-26.204 0-.98 0-1.96.245-2.94.49-1.713 1.714-2.693 3.673-2.448 1.715 0 3.184.98 3.184 2.939.245 6.857.245 13.714.245 20.816v.49c-3.429 3.673-1.714 8.081-1.96 12.49 0 2.693-.979 4.408-3.183 5.877-3.184 1.96-6.367 4.163-7.347 8.327-.245.734-.245 1.714-.245 2.694 0 .49 0 .98.735.98.49 0 .735-.49.735-.98.245-4.898 3.183-7.592 6.857-9.796 2.939-1.715 4.408-3.919 4.163-7.347a41.887 41.887 0 0 1 0-7.837c0-2.45 1.47-3.919 3.673-3.919 1.96 0 3.674 1.715 3.674 3.919-.245 8.326.49 16.408-.245 24.735-.98 7.591-5.143 13.224-12.245 16.163-7.102 3.183-13.959 2.449-20.816-1.96z"/>
	<path fill="#FEFEFE" d="M17.388 44.53v.98a15.364 15.364 0 0 1 15.428 15.43h.98-.98c-.245 8.571-6.857 15.428-15.428 15.428h-.245c-8.572 0-15.184-6.857-15.184-15.673h-.735l.735.245v-.245h-.735l.735.245v-.245c0-8.327 6.857-15.184 15.429-15.184v-1.959C7.592 43.551 0 51.143 0 60.694h.98H0c0 9.796 7.592 17.632 17.143 17.632h.245c9.55 0 17.143-7.591 17.387-17.387 0-4.898-1.959-9.061-5.142-12.245-3.184-3.184-7.592-5.143-12.245-5.143v.98z"/>
	<path fill="#fff" d="M27.673 55.551c-.49-.49-1.224-.49-1.469 0l-8.816 8.816-8.817-8.816c-.49-.49-.98-.49-1.469 0-.49.245-.49.98 0 1.47l9.551 9.305c.245.245.49.49.735.49s.49-.245.734-.49l9.551-9.306c.245-.49.245-1.224 0-1.469z"/>
</symbol>
<symbol id="icon-adv-2" viewBox="0 0 73 80">
	<path fill="#fff" d="M21.783 50.658c-.92 3.158-1.97 6.184-2.758 9.21-.656 2.369-1.575 4.474-2.888 6.448-2.364 3.684-4.464 7.368-6.828 11.052-2.1 3.29-6.171 3.422-8.272.264-1.444-1.974-1.05-3.948 0-5.921 1.313-2.369 2.626-4.737 4.202-6.974 3.02-4.605 4.727-9.605 6.04-15 1.313-6.316 3.15-12.632 4.727-18.948 0-.394.13-.657.13-1.052-1.706.395-2.888 1.053-3.413 2.763-1.05 3.026-2.232 5.921-3.414 8.947-.919 2.369-2.888 3.158-5.252 2.237-1.838-.658-2.626-2.763-1.707-5.131 1.576-3.685 3.151-7.5 4.596-11.316.788-1.974 1.97-3.553 3.808-4.737 2.888-1.974 5.777-4.079 8.928-5.921 3.414-1.974 6.959-1.71 10.373-.132 1.313.658 2.363 2.106 3.02 3.29 1.97 3.684 3.676 7.5 5.514 11.053.394.657.92 1.315 1.576 1.71 2.232 1.579 4.595 3.026 6.959 4.605 1.313.79 1.97 1.974 1.838 3.553-.263 2.368-2.232 3.684-4.464 2.895a4.85 4.85 0 0 1-1.445-.658c-1.181-.79-2.232-1.58-3.413-2.237-3.414-1.842-6.434-4.21-8.535-7.5-.131-.263-.394-.395-.788-.921-.394 1.842-.525 3.552-1.05 5-1.182 3.42-.394 6.184 2.232 8.816 2.495 2.763 4.727 6.052 6.959 9.21.788 1.053 1.313 2.5 1.575 3.816.92 5.132 1.576 10.263 2.364 15.395.525 3.158-.788 5-4.07 5.526-2.626.395-4.858-1.184-5.252-3.947-.526-3.158-1.05-6.184-1.576-9.21-.394-1.711-.657-3.422-.92-5.132-.13-1.316-.656-2.369-1.575-3.29-2.363-2.5-4.727-5-7.221-7.763zM35.044 7.5a7.349 7.349 0 0 1-7.353 7.368c-4.201 0-7.484-3.42-7.353-7.631 0-4.08 3.414-7.237 7.484-7.237s7.353 3.421 7.222 7.5zm23.372 68.816c.262-.263.656-.79.656-1.71 0-.79-.262-1.316-.656-1.711-.525-.527-1.05-.658-1.707-.658s-1.182.263-1.576.658c-.525.526-.788 1.052-.788 1.71 0 .658.263 1.316.788 1.71.263.395.788.659 1.576.659s1.444-.264 1.707-.658zm.788-9.737-3.02 3.947c.394-.131.787-.263 1.444-.263.919 0 1.97.395 2.757 1.053.657.658 1.182 1.71 1.182 3.158 0 1.052-.263 2.105-1.182 3.026-1.05 1.184-2.232 1.447-3.545 1.447-1.444 0-2.626-.263-3.676-1.315-.657-.658-1.182-1.711-1.182-3.027 0-1.579.656-2.895 1.575-4.079l3.677-5 1.97 1.053zm6.171 5.658c0 3.42 1.313 4.605 2.494 4.605 1.05 0 2.364-1.184 2.364-4.605 0-3.29-1.313-4.474-2.364-4.474-1.181 0-2.494 1.184-2.494 4.474zm-2.495 0c0-4.342 2.363-6.58 4.99-6.58 2.494 0 4.857 2.238 4.857 6.58 0 4.474-2.363 6.71-4.858 6.71-2.626 0-4.99-2.237-4.99-6.71z"/>
</symbol>
<symbol id="icon-adv-3" viewBox="0 0 104 80">
	<path fill="#fff" d="M92.694 61.362 82.62 57.65l-.04.159.118-.119-.078-.04-.04.159.118-.119c-.04 0-.196-.197-.274-.513a3.263 3.263 0 0 1-.196-1.106V20.336c0-.395.078-.711.156-.87l.04-.039-.275-.276v.355l.275-.079-.275-.276v.355-.395l-.117.356.117.04v-.396l-.117.356 10.036 3.712.627-1.698-10.075-3.673-.47-.118c-.354 0-.667.158-.903.355-.627.593-.784 1.382-.784 2.29v35.736c0 .671.118 1.343.353 1.895.236.553.51 1.066 1.216 1.382l10.036 3.673.627-1.659z"/>
	<path fill="#fff" d="M92.38 11.925h-.901v66.061c0 1.106.902 2.014 2 2.014h7.723a2.015 2.015 0 0 0 1.999-2.014V11.925c0-1.145-.902-2.053-1.999-2.053h-7.724c-1.097 0-1.999.908-1.999 2.053h1.803l.196-.237h7.724l.235.237v66.061l-.235.237h-7.724l-.196-.237V11.925h-.901zM11.189 63.02l10.036-3.672c.706-.316.98-.829 1.215-1.382.236-.552.353-1.224.353-1.895V20.336c0-.593-.078-1.145-.313-1.62l-.47-.67c-.236-.198-.55-.356-.902-.356l-.51.118h.04L10.6 21.481l.588 1.698 10.036-3.712-.117-.355v.394l.117-.04-.117-.355v.395-.395l-.275.316.275.08v-.396l-.275.316.079-.079-.079.04v.04l.079-.08-.079.04c.04.04.196.434.196.948V56.07c0 .434-.117.908-.235 1.224l-.157.355-.078.04.117.119-.039-.158-.078.039.117.119-.039-.158L10.6 61.361l.588 1.659z"/>
	<path fill="#fff" d="M9.778 10.78v-.908H2.054c-1.097 0-2 .908-2 2.053v66.061c0 1.106.903 2.014 2 2.014h7.724a2.015 2.015 0 0 0 1.999-2.014V11.925c0-1.145-.902-2.053-2-2.053v1.816l.236.237v66.061l-.235.237H2.054l-.235-.237V11.925l.235-.237h7.724v-.908zM50 50.582c-.98 3.278-1.92 6.279-2.744 9.28-.627 2.33-1.607 4.422-2.861 6.436-2.314 3.633-4.509 7.384-6.783 11.056-2.078 3.238-6.116 3.357-8.272.277-1.372-1.935-1.02-3.988.04-5.963 1.293-2.369 2.587-4.738 4.116-7.028 3.018-4.58 4.783-9.596 5.998-14.926 1.411-6.318 3.136-12.636 4.744-18.954.039-.316.117-.671.196-1.106-1.725.435-2.901 1.106-3.49 2.883-.94 3.001-2.195 5.883-3.332 8.845-.94 2.37-2.9 3.238-5.253 2.33-1.882-.711-2.548-2.843-1.608-5.094 1.49-3.79 3.058-7.542 4.548-11.333.745-1.974 1.882-3.593 3.685-4.778 2.98-1.974 5.842-4.067 8.9-5.883 3.371-2.014 7.017-1.737 10.389-.158 1.254.592 2.274 2.053 2.94 3.317 1.96 3.633 3.646 7.384 5.489 11.017a4.992 4.992 0 0 0 1.529 1.737c2.273 1.54 4.665 3.04 6.978 4.541 1.254.83 2 1.935 1.843 3.514-.236 2.37-2.314 3.712-4.509 2.922-.47-.158-.94-.434-1.372-.71-1.176-.672-2.274-1.461-3.45-2.133-3.41-1.816-6.351-4.185-8.468-7.542-.157-.237-.392-.434-.784-.868-.353 1.816-.51 3.474-1.02 4.975-1.215 3.475-.352 6.16 2.157 8.806 2.587 2.803 4.743 6.04 6.939 9.2.784 1.105 1.294 2.448 1.529 3.79.94 5.134 1.686 10.267 2.47 15.4.51 3.12-.863 4.976-4.038 5.489-2.705.434-4.822-1.145-5.332-3.949-.51-3.04-1.059-6.08-1.568-9.16-.275-1.738-.628-3.436-.863-5.173-.157-1.264-.705-2.251-1.607-3.199-2.352-2.487-4.626-5.054-7.135-7.858zm13.213-43.08c0 4.107-3.333 7.385-7.37 7.345-4.117 0-7.41-3.396-7.332-7.581A7.38 7.38 0 0 1 56 0c4.038.04 7.292 3.396 7.214 7.502z"/>
</symbol>
<symbol id="icon-adv-4" viewBox="0 0 73 80">
	<path fill="#fff" d="M26.81 26.932c-4.05-.137-7.308-1.865-9.772-4.8-4.626-5.512-4.052-13.795 1.314-18.676 4.79-4.334 11.744-4.635 17-.713 7.747 5.786 6.871 17.744-1.615 22.543-2.053 1.152-4.27 1.673-6.926 1.646zm16.563 6.884c-3.066 1.206-5.995 2.303-8.924 3.483-5.12 2.056-7.42 6.554-6.625 11.957 1.067 7.405 3.23 14.453 6.57 21.09-.356.494-.74.302-1.095.302-9.527.027-19.053.027-28.58 0-2.929 0-4.736-1.865-4.353-4.717.794-6.171 1.424-12.37 2.601-18.458 1.56-8.063 6.488-13.657 13.797-17.195.74-.357 1.314-.247 2.026.137 5.667 3.099 11.388 3.017 17.027-.028.767-.411 1.342-.411 2.026-.082a25.927 25.927 0 0 1 5.53 3.51zm7.774 3.537a977.629 977.629 0 0 0-14.892 5.705c-1.97.768-3.175 2.797-2.929 4.717.876 7.268 2.847 14.234 6.297 20.679C42.36 73.555 45.59 78.244 51.558 80h2.628c4.079-1.042 6.926-3.73 9.253-7.076 5.174-7.432 7.83-15.824 9.061-24.71.028-.192.055-.411.055-.603v-.604c-.11-1.974-1.26-3.29-3.422-4.114-4.654-1.81-9.362-3.538-14.016-5.375-1.341-.521-2.656-.686-3.97-.165zm10.403 15.77a1.007 1.007 0 0 1 1.45 0 1.028 1.028 0 0 1 0 1.426l-9.361 9.38a.993.993 0 0 1-.712.301c-.274 0-.52-.11-.74-.301l-9.334-9.38a.98.98 0 0 1 0-1.426.975.975 0 0 1 1.423 0l8.65 8.64 8.624-8.64z"/>
</symbol>
<symbol id="icon-adv-5" viewBox="0 0 78 80">
	<path fill="#fff" d="M3.161 8.639H0v-.882l.088-.353.088-.441.087-.441.088-.353.176-.441.176-.353.087-.441.264-.353.175-.353.176-.353.263-.265.264-.352.263-.353.264-.265.263-.265.351-.264.352-.265.263-.265.351-.176.352-.176.35-.265.44-.088.351-.177.44-.176.35-.088.44-.089L7.2.258 7.55.17h.879v3.176h-.527l-.263.088h-.264l-.263.088-.264.088-.175.089-.264.088-.263.088-.176.088-.263.177-.176.088-.263.176-.176.177-.175.176-.176.177-.176.176-.175.177-.176.176-.176.265-.087.176-.176.265-.088.176-.088.265-.087.264-.088.177-.088.265-.088.264v.265l-.088.264v.53zM0 65.804V8.639h3.161v57.165H0zm7.025 6.175H3.864l.878 1.411-.264-.176-.263-.088-.263-.177-.264-.176-.175-.177-.264-.088-.176-.265-.263-.176-.176-.176-.263-.177-.176-.264-.175-.177-.176-.265-.176-.176-.175-.265-.176-.264-.175-.177-.088-.264-.176-.265-.088-.265-.175-.264-.088-.265-.088-.353-.088-.265-.088-.264-.087-.265v-.353l-.088-.264v-.353L0 66.42v-.617h3.161v.617l.088.176v.177l.088.176v.177l.088.176v.177l.088.176.087.177.088.176v.176l.088.089.088.176.088.176.175.177.088.088.088.177.088.088.175.176.088.177.176.088.088.088.175.177.088.088.176.088.175.088.088.177.176.088.175.088.176.088.878 1.412zm-.878-1.412.878.441v.97l-.878-1.41zm-2.283 4.588v-3.176h3.161v3.176H3.864zm4.566 1.5v3.175h-.176l-.263-.088h-.439l-.264-.088-.175-.088h-.264l-.175-.089-.264-.088-.175-.176-.176-.089-.176-.088-.175-.176-.176-.088-.175-.177-.176-.176-.176-.177-.087-.088-.176-.176-.088-.177-.176-.264-.087-.177-.088-.176-.088-.177-.088-.264-.088-.177-.087-.265v-.176l-.088-.265v-.705h3.161v.352l.088.089v.176l.088.088v.089h.087v.088l.088.088.088.088.088.088.088.089h.088v.088h.175l.088.088h.351v.088h.088zm1.493-1.5h3.161v.264l-.088.265v.441l-.088.176-.087.265v.177l-.088.264-.088.177-.176.176-.087.177-.088.264-.176.177-.088.176-.175.088-.176.177-.088.176-.175.177-.176.088-.176.176-.263.088-.176.089-.175.176-.176.088h-.263l-.176.088-.263.089-.176.088h-.439l-.264.088H8.43v-3.176h.088l.088-.088h.351l.088-.088h.088l.087-.088.088-.089h.088v-.088h.088v-.088h.088v-.088l.087-.088.088-.089v-.088l.088-.088v-.265l.088-.088v-.176zm3.161-3.176v3.176H9.923v-3.176l.878-1.412 2.283 1.412zm-3.161 0v-.97l.878-.442-.878 1.412zm3.776-6.175h3.161v.882l-.088.353v.264l-.088.353-.087.265-.088.264-.088.265-.088.353-.088.265-.088.264-.175.265-.088.265-.175.264-.176.177-.088.264-.176.265-.175.176-.176.265-.263.177-.176.264-.176.177-.263.176-.176.176-.263.177-.176.176-.263.177-.264.176-.175.177-.264.088-.263.176-1.405-2.823.088-.088.175-.088.176-.088.176-.177.175-.088.088-.088.176-.088.088-.177.175-.088.088-.088.176-.177.087-.176.088-.088.176-.177.088-.088.088-.177.087-.176.088-.176.088-.089.088-.176.088-.176v-.177l.087-.176.088-.177v-.176l.088-.177v-.176l.088-.177v-.793zM16.86 8.639v57.165h-3.161V8.639h3.161zM6.85 1.758h3.16L8.43.17h.44l.438.088h.44l.438.088.351.089.44.088.35.176.44.177.351.088.351.265.352.176.35.176.352.265.264.265.35.264.264.265.264.353.263.265.264.352.263.265.176.353.263.353.176.353.175.44.176.354.088.44.088.354.087.44.088.442.088.353v.882h-3.161v-.794l-.088-.265-.088-.264V7.05l-.088-.177-.088-.264-.175-.265-.088-.176-.088-.265-.175-.176-.176-.265-.088-.176-.175-.177-.176-.176-.176-.177-.263-.176-.176-.177-.175-.176-.264-.088-.175-.177-.264-.088-.175-.088-.264-.088-.263-.089-.264-.088-.263-.088H9.22l-.263-.088H8.43L6.85 1.758zm1.58 1.588H6.85V1.758l1.58 1.588zm1.58-1.588H6.85L8.43.17l1.58 1.588zM8.43.17h1.58v1.588L8.43.17zm31.788 7.94h3.688V4.492h2.898v3.616h3.6v2.647h-3.6v3.705h-2.898v-3.705h-3.688V8.109zM62.26 4.316h-5.182l-.614 2.558c.35-.088.702-.088 1.053-.088 1.669 0 3.162.618 4.04 1.5 1.23 1.323 1.405 2.911 1.405 3.793 0 1.676-.527 3-1.58 4.146-1.318 1.235-2.635 1.588-4.304 1.588-.878 0-2.195-.088-3.424-.705-.615-.265-1.318-.794-1.844-1.324l.965-2.646c.44.617.966 1.058 1.669 1.411.703.441 1.493.618 2.283.618 1.23 0 1.932-.53 2.371-.97.44-.442.79-1.236.79-2.294 0-.882-.263-1.588-.878-2.117-.79-.706-1.756-.794-2.459-.794-1.141 0-2.195.264-3.336.97l1.844-8.204h7.2v2.558z"/>
	<path fill="#fff" d="M11.152 14.197h4.128v3.175h-4.128v-3.175zm0 13.673h4.128v3.264h-4.128V27.87zm0 13.762h4.128v3.176h-4.128v-3.176zm0 13.674h4.128v3.264h-4.128v-3.264zM6.937 7.757h8.342v3.175H6.937V7.757zm0 54.43h8.342v3.175H6.937v-3.175zm0-27.259h8.342v3.175H6.937v-3.175zm0 13.673h8.342v3.176H6.937v-3.176zm0-27.259h8.342v3.176H6.937v-3.176zm22.041-10.41h-10.01V7.757h10.01v3.175zm0 54.43h-10.01v-3.175h10.01v3.175zM68.757 9.786c0 4.058 1.669 5.557 2.986 5.557 1.317 0 2.986-1.5 2.986-5.557 0-4.147-1.669-5.646-2.986-5.646-1.317 0-2.986 1.5-2.986 5.646zm-3.073 0c0-5.47 2.898-8.205 6.06-8.205 3.073 0 5.97 2.735 5.97 8.205 0 5.38-2.897 8.204-5.97 8.204-3.162 0-6.06-2.823-6.06-8.204zM40.218 62.187h3.688V58.57h2.898v3.617h3.6v2.646h-3.6v3.705h-2.898v-3.705h-3.688v-2.646zm16.772 9.439h3.074V55.394H54.62v2.735h2.37v13.497z"/>
</symbol>
<symbol id="icon-adv-6" viewBox="0 0 80 80">
	<path fill="#fff" d="M40.082 3.942c-19.877 0-35.975 16.1-35.975 35.812 0 19.876 16.099 35.975 35.975 35.975 19.877 0 36.14-16.099 36.14-35.975 0-19.713-16.263-35.811-36.14-35.811zm0 70.473c-19.055 0-34.825-15.442-34.825-34.661 0-19.056 15.606-34.662 34.825-34.662 19.22 0 34.826 15.606 34.826 34.662 0 19.055-15.606 34.66-34.826 34.66z"/>
	<path fill="#fff" d="M43.532 38.932c1.15 1.15 1.643 2.464 1.643 4.271 0 1.971-.658 3.45-1.479 4.436-.821.821-2.3 1.807-4.764 1.807a8.942 8.942 0 0 1-4.435-1.15c-1.478-.657-2.464-1.643-3.285-2.629L29.24 50.76c1.15.985 2.629 1.971 3.779 2.628 2.3 1.15 4.928 1.15 6.57 1.15 3.286 0 6.078-.657 8.542-3.121 2.136-1.971 3.122-4.6 3.122-7.885 0-1.807-.329-4.928-2.793-7.392-1.643-1.807-4.6-2.957-7.885-2.957-.821 0-1.479 0-2.136.164l1.15-4.764h10.35v-5.256H35.646l-3.614 16.098c2.3-1.478 4.435-1.971 6.57-1.971 1.48 0 3.286.164 4.929 1.478zM30.719 65.544c0 .822-.329 1.15-.329 1.15-.328.329-.821.329-1.15.164v1.807c.329.164.493.165.822.165.657 0 1.478 0 1.97-.657.494-.493.822-1.15.822-2.465v-2.3h1.807v5.257h2.3v-7.063h-6.242v3.942zm11.499-4.271c-.657 0-1.807.164-2.629 1.15-.821.657-1.15 1.807-1.15 2.793 0 1.15.493 2.135 1.15 2.792.822.822 1.807.986 2.793.986.821 0 1.643-.164 2.3-.493.328-.329.985-.821 1.314-1.807l-2.136-.329c-.164.493-.492.658-.492.658-.329.164-.657.328-.986.328-.329 0-.821-.164-1.15-.493-.328-.328-.493-.821-.493-1.314h5.421v-.164c0-.986-.164-1.971-.985-2.957-.986-.986-2.136-1.15-2.957-1.15zm-1.315 2.957c0-.329.165-.657.33-.821.328-.165.656-.493 1.313-.493.329 0 .822.164.986.493.328.328.493.821.493.821h-3.121zm5.914-.821h1.972v5.42h2.3v-5.42h1.97v-1.807h-6.242v1.807zM16.099 21.848l-1.15-.821-2.464 3.45 5.585 3.942.821-1.314-4.27-3.121 1.478-2.136zm3.942-5.585.493.657c-1.15-.164-1.807.164-2.3.493-1.314 1.314-1.478 3.285-.164 4.928 1.314 1.314 3.285 1.971 4.928.493.329-.329.986-.822.986-1.972l.328.493 1.314-.985-4.435-5.093-1.15.986zm2.136 2.628c.985.986.821 2.136 0 2.793-.822.657-2.136.493-2.793-.493-.821-.821-.821-2.136 0-2.793.657-.657 1.971-.657 2.793.493zm5.585-.493c.986.493 1.971.165 2.3 0 1.478-.657 2.464-2.464 1.478-4.6-.821-1.97-2.792-2.628-4.435-1.806-.657.164-1.15.657-1.478 1.478l-.165-.657-1.478.657 4.107 9.692 1.478-.657-1.807-4.107zm-1.15-2.3c-.493-1.314 0-2.463.986-2.792.986-.493 1.971.164 2.464 1.314.493.986.164 2.136-.821 2.628-.822.493-1.972.165-2.629-1.15zm10.185.658c.493-.165 1.314-.329 1.807-1.15l.164.657 1.479-.164-.657-6.736-1.643.165.164.821c-.821-.821-1.643-.821-2.135-.821-1.807.164-3.121 1.807-2.957 3.942.328 1.807 1.642 3.45 3.778 3.286zm-.493-5.75c.986-.164 1.971.493 2.136 1.971.164 1.315-.657 2.136-1.643 2.3-1.15.165-1.971-.821-2.136-1.971-.164-1.15.493-2.136 1.643-2.3zm7.392 2.628 2.628.493-.328 2.793 1.478.164 1.15-6.57-1.643-.33-.328 2.465-2.793-.493.493-2.464-1.643-.164-1.15 6.57 1.643.33.493-2.794zm7.557 5.093 2.135-4.928 1.807.821.493-1.314-5.092-2.136-.493 1.315 1.807.82-2.136 4.765 1.479.657zm5.257-.329 2.299-2.957-1.15-.985-4.435 5.75 6.406-.658-2.464 3.121 1.314.822 4.436-5.75-6.407.657zm9.527 3.779c-.493-.493-.986-.986-1.643-1.15-.821-.165-1.314.164-1.642.492-.493.33-.658.658-.822 1.315 0 .328 0 .657.329 1.15l-3.45-.165 1.15 1.479h3.121l.164.328-1.97 1.479.82 1.314 5.421-4.107-1.478-2.135zm-1.807 2.628-.657-.657c-.164-.329-.329-.657-.329-.822 0-.164 0-.492.329-.657.164-.328.493-.328.657-.164.329.164.493.329.657.657l.493.657-1.15.986z"/>
	<path fill="#fff" d="M39.918 80C17.906 80 0 62.094 0 39.918 0 17.906 17.905 0 39.918 0 62.094 0 80 17.905 80 39.918 80 62.094 62.094 80 39.918 80zm0-77.7C19.22 2.3 2.3 19.22 2.3 39.918 2.3 60.78 19.22 77.7 39.918 77.7 60.78 77.7 77.7 60.78 77.7 39.918 77.7 19.22 60.78 2.3 39.918 2.3z"/>
</symbol>
<symbol id="logo-blue" viewBox="0 0 120.213 30.84">
	<path fill="#204289" d="M25.029 29.971V.847h17.359v7.038l-9.273.002v4.105l8.364-.001v6.439l-8.364.009v4.612l9.254.002v6.918zM12.139.828h-.958L0 .843v29.128h8.01l.009-9.536 3.146.001.933.006c8.356-.015 10.581-5.957 10.581-9.813-.001-3.821-2.208-9.811-10.54-9.801m-.409 13.073a2.196 2.196 0 0 1-.542.096l-.831.002-2.303.002.003-6.704 2.29-.001c.309-.002.682.018.891.041 2.726.226 3.037 2.054 3.032 3.333.001.731-.063 2.68-2.54 3.231m81.928 14.733c-2.584 1.829-5.266 2.194-7.781 2.206-8.18.003-14.797-5.619-14.79-15.399C71.097 5.258 78.369.004 85.802 0c2.563-.015 5.425.671 7.864 2.311l-.003 8.478c-1.066-1.258-3.368-3.489-6.824-3.488-4.67.009-7.37 3.805-7.374 8.365 0 5.116 3.363 7.904 7.363 7.897 2.942-.005 5.313-1.577 6.83-3.149v8.22zm26.555-8.695c.009-5.942-3.857-10.831-11.927-10.808-8.054 0-11.947 4.879-11.951 10.816-.013 6.135 3.988 10.762 11.933 10.756 8.058-.002 11.945-4.828 11.945-10.764m-7.505.004c.003.771-.069 5.569-4.433 5.572-4.386.003-4.432-4.796-4.438-5.572.008-3.215 1.443-5.571 4.443-5.581 2.944.01 4.435 2.351 4.428 5.581m-49.247-.302c4.568-1.719 5.919-5.992 5.919-9.009 0-3.678-2.037-9.331-9.626-9.77-.501-.028-.901-.016-1.092-.018h-11.96V29.97h8.041l.015-9.535h.008l2.863 4.563 3.254 4.972h9.738l-7.16-10.329zm-5.029-5.724a2.18 2.18 0 0 1-.541.096l-.83.002-2.304.002.004-6.704 2.29-.001c.306-.002.68.018.89.041 2.726.226 3.037 2.054 3.032 3.333 0 .731-.064 2.679-2.541 3.231"/>
</symbol>
</svg>