<svg xmlns="http://www.w3.org/2000/svg" width="167" height="55" fill="none" viewBox="0 0 167 55">
	<g clip-path="url(#video-btn-a)">
		<path fill="#003067" fill-rule="evenodd" d="M1.851.265h163.354c1.01 0 1.795.73 1.795 1.627v51.216c0 .898-.785 1.627-1.795 1.627H1.851c-1.01 0-1.851-.73-1.851-1.627V1.892C0 .994.841.265 1.851.265z" clip-rule="evenodd"/>
		<path fill="#fff" d="M71.13 14.009c-1.402-1.178-2.804-1.29-3.478-1.29-3.31 0-5.329 2.356-5.329 5.385s2.132 5.273 5.217 5.273c1.795 0 3.03-.785 3.703-1.402v-1.347c-.786.898-2.02 1.851-3.647 1.851-2.02 0-4.207-1.458-4.207-4.375 0-2.525 1.74-4.432 4.263-4.432 1.627 0 2.805.898 3.478 1.683V14.01zM72.814 23.152h1.065l1.627-7.965 3.759 8.583 3.814-8.583 1.627 7.966h1.066L83.36 12.325l-4.095 9.2-4.04-9.2-2.411 10.826zM92.84 12.719c-3.03 0-5.33 2.3-5.33 5.329s2.3 5.329 5.33 5.329c3.03 0 5.33-2.3 5.33-5.33 0-3.029-2.3-5.329-5.33-5.329zm0 9.76c-2.468 0-4.263-1.963-4.263-4.431 0-2.469 1.795-4.376 4.263-4.376s4.32 1.907 4.32 4.376c0 2.468-1.852 4.431-4.32 4.431zM102.545 23.152h1.01v-9.256h3.534v-.953h-8.078v.954h3.534v9.255zM110.118 21.301c.281.505 1.403 2.076 3.927 2.076 3.085 0 4.993-2.412 4.993-5.441 0-2.918-1.852-5.217-4.937-5.217-1.627 0-3.029.673-3.983 2.019v-1.795h-1.01v15.931h1.01v-7.573zm3.927 1.178c-2.581 0-3.983-2.02-3.983-4.543 0-2.861 1.963-4.264 3.983-4.264 2.075 0 3.927 1.515 3.927 4.264 0 2.524-1.403 4.543-3.927 4.543zM131.098 18.16c0-3.254-2.075-5.441-4.824-5.441-2.468 0-4.937 1.795-4.937 5.385 0 2.973 1.852 5.273 4.993 5.273 2.524 0 3.871-1.57 4.488-2.749l-.842-.505c-.673 1.347-1.907 2.356-3.534 2.356-2.131 0-4.039-1.739-4.039-4.32h8.695zm-8.639-.954c.281-1.963 1.739-3.534 3.815-3.534 2.019 0 3.534 1.515 3.758 3.534h-7.573zM135.978 23.152h1.01v-9.256h3.534v-.953h-8.078v.954h3.534v9.255zM142.542 12.943v10.21h3.366c.785 0 1.739-.113 2.468-.786.617-.56.898-1.402.898-2.188 0-.729-.225-1.514-.73-2.02-.729-.897-1.795-.953-2.58-.953h-2.412v-4.263h-1.01zm1.01 9.256v-4.04h2.356c.561 0 1.178.113 1.627.45.392.28.673.841.673 1.57 0 .674-.281 1.178-.673 1.515-.505.449-1.122.505-1.627.505h-2.356zM62.997 34.091v10.154h3.87c.617 0 1.683-.056 2.468-.673.505-.393 1.01-1.066 1.01-2.188 0-1.066-.392-1.683-.841-2.076-.505-.392-1.066-.56-1.234-.56.729-.505 1.122-1.235 1.122-2.132 0-1.066-.561-1.627-.898-1.964-.73-.56-1.627-.56-2.188-.56h-3.31zm1.01 4.432v-3.478h2.3c.336 0 .953 0 1.458.393.28.224.617.617.617 1.29 0 .73-.337 1.122-.617 1.346-.505.393-1.066.449-1.459.449h-2.3zm0 4.768v-3.814h2.86c.561 0 1.234.056 1.795.448.393.337.673.786.673 1.403 0 .841-.392 1.29-.729 1.514-.56.45-1.402.45-1.739.45h-2.86zM73.318 34.091v10.77l7.237-8.694v8.078h1.01v-10.77l-7.237 8.75v-8.134h-1.01zM85.828 34.091v5.105c0 1.066-.056 2.02-.393 2.749-.28.617-.954 1.29-1.907 1.346v3.703h.953v-2.75h8.64v2.75h.897V43.29h-1.459v-9.2h-6.731zm5.722 9.2h-6.003c.674-.56 1.29-1.514 1.29-3.758v-4.488h4.713v8.246zM105.237 39.308c0-3.253-2.075-5.441-4.824-5.441-2.468 0-4.936 1.795-4.936 5.33 0 2.972 1.85 5.328 5.048 5.328 2.525 0 3.871-1.627 4.432-2.748l-.842-.505c-.617 1.346-1.907 2.3-3.534 2.3-2.131 0-4.039-1.683-4.039-4.264h8.695zm-8.638-.953c.28-1.964 1.739-3.534 3.814-3.534 2.02 0 3.534 1.514 3.815 3.534h-7.63zM112.923 33.867c-3.029 0-5.385 2.3-5.385 5.33 0 3.028 2.356 5.328 5.385 5.328 2.973 0 5.329-2.3 5.329-5.329 0-3.03-2.356-5.33-5.329-5.33zm0 9.705c-2.468 0-4.32-1.908-4.32-4.376 0-2.468 1.852-4.375 4.32-4.375 2.412 0 4.263 1.907 4.263 4.375s-1.851 4.376-4.263 4.376z"/>
		<path fill="#F0F0F0" fill-rule="evenodd" d="M18.231 40.655c.505-.113 9.986-5.778 11.164-6.452l11.275-6.675-.617-.505c-.224-.112-.393-.224-.673-.392-.505-.281-.954-.505-1.459-.842-.953-.561-1.795-1.066-2.748-1.627-1.908-1.066-3.703-2.188-5.666-3.31-1.459-.841-10.659-6.395-11.276-6.507v26.31z" clip-rule="evenodd"/>
	</g>
	<defs>
		<clipPath id="video-btn-a">
			<path fill="#fff" d="M0 0h167v55H0z"/>
		</clipPath>
	</defs>
</svg>
